 <svg
                                xmlns="http://www.w3.org/2000/svg"
                                viewBox="0 0 50 50"
                            >
                                <path
                                    d="M33.722 29.626c-5.494 1.373-8.848 6.96-7.475 12.456a10.2 10.2 0 004.679 6.316 10.212 10.212 0 007.778 1.159 10.21 10.21 0 006.317-4.681 10.205 10.205 0 001.156-7.776c-1.372-5.494-6.959-8.847-12.455-7.474zm10.063 14.511a8.77 8.77 0 01-5.433 4.022 8.771 8.771 0 01-6.685-.994 8.778 8.778 0 01-4.024-5.433c-1.182-4.725 1.702-9.529 6.427-10.71a8.832 8.832 0 012.141-.265c3.958 0 7.569 2.684 8.57 6.692a8.776 8.776 0 01-.996 6.688z"
                                ></path>
                                <path
                                    d="M26.835 47.111H10.727v-3.539h13.229a.72.72 0 000-1.439H10.727v-3.46h12.787a.72.72 0 100-1.439H8.292v-3.461h17.216a.718.718 0 100-1.439h-7.512V30.5a.515.515 0 10-1.028 0v1.834h-6.24v-3.423h1.042V30.5a.514.514 0 101.028 0v-1.589h1.671V30.5a.514.514 0 101.028 0v-1.589h14.946a.72.72 0 100-1.439h-4.227v-10.61c0-1.086.136-2.098.355-3.031a9.03 9.03 0 001.901.037c1.952-.177 3.519-1.027 4.527-2.46C35.914 7.268 34.3.841 34.229.569a.718.718 0 00-.857-.521c-.112.025-2.776.646-5.324 2.137-3.532 2.069-5.09 4.802-4.508 7.905a.72.72 0 101.414-.266c-.464-2.477.812-4.624 3.797-6.38 1.605-.945 3.308-1.524 4.237-1.799.117.638.268 1.65.301 2.813.052 1.771-.161 4.271-1.466 6.124-.762 1.081-1.919 1.704-3.44 1.85a7.342 7.342 0 01-1.397-.002c1.253-3.551 3.606-5.621 3.639-5.647a.72.72 0 10-.936-1.094c-.156.133-3.046 2.654-4.317 7.018a.617.617 0 00-.046.129c-.007.027-.008.054-.012.081a14.777 14.777 0 00-.535 3.948v3.502a20.63 20.63 0 00-1.5-1.928c.199-.761.804-3.777-1.522-5.652-3.09-2.491-9.616-1.796-9.892-1.766a.719.719 0 00-.609.926c.12.388 2.883 9.168 8.321 9.168.205 0 .414-.012.626-.038a.72.72 0 00-.174-1.43c-1.896.231-3.704-1.017-5.368-3.71-.819-1.326-1.401-2.698-1.725-3.553a24.135 24.135 0 012.563.002c2.438.137 4.289.663 5.354 1.521 1.149.926 1.27 2.31 1.189 3.25-1.439-1.353-2.536-1.932-2.619-1.975a.719.719 0 10-.659 1.28c.034.018 3.374 1.782 6.015 6.661v4.352H10.007a.72.72 0 00-.72.72v4.142H7.572a.72.72 0 00-.72.72v4.897a.72.72 0 00.72.721h1.716v9.155c0 .398.322.72.72.72h16.828a.72.72 0 10-.001-1.439zM45.188 9.529a.72.72 0 00.721-.72v-.642a.72.72 0 00-1.441 0v.643a.72.72 0 00.72.719zm0 4.407a.72.72 0 00.721-.72v-.642a.72.72 0 00-1.441 0v.642c0 .397.322.72.72.72zm-2.525-2.525h.644a.72.72 0 000-1.439h-.644a.718.718 0 100 1.439zm4.406 0h.643a.72.72 0 100-1.439h-.643a.72.72 0 100 1.439zm-9.245 10.11a.721.721 0 00.721-.72v-.643a.72.72 0 00-1.44 0v.642a.72.72 0 00.719.721zm0 4.405a.72.72 0 00.721-.719v-.642a.72.72 0 10-1.44 0v.642a.72.72 0 00.719.719zm-2.523-2.524h.643a.72.72 0 000-1.44h-.643a.72.72 0 100 1.44zm4.406 0h.643a.72.72 0 000-1.44h-.643a.72.72 0 100 1.44zm-34.7-4.7a.72.72 0 00-.72.72v.642a.72.72 0 001.44 0v-.642a.72.72 0 00-.72-.72zm0 4.406a.72.72 0 00-.72.72v.642a.72.72 0 001.44 0v-.642a.72.72 0 00-.72-.72zm-1.882-1.881h-.642a.72.72 0 100 1.439h.642a.72.72 0 100-1.439zm4.407 1.439a.72.72 0 100-1.439h-.643a.72.72 0 100 1.439h.643z"
                                ></path>
                                <circle
                                    cx="47.213"
                                    cy="21.709"
                                    r=".92"
                                ></circle>
                                <circle
                                    cx="47.424"
                                    cy="30.334"
                                    r=".92"
                                ></circle>
                                <circle cx="5.033" cy="11.611" r=".92"></circle>
                                <path
                                    d="M19.612 29.966v.536a.514.514 0 101.028 0v-.536a.514.514 0 10-1.028 0zm-6.879 5.193v.759a.514.514 0 001.028 0v-.759a.515.515 0 00-.514-.515.516.516 0 00-.514.515zm-2.49 0v.759a.514.514 0 001.028 0v-.759a.515.515 0 00-.514-.515.516.516 0 00-.514.515zm5.189 0v.241a.514.514 0 001.028 0v-.241a.515.515 0 00-.514-.515.516.516 0 00-.514.515zm17.816 4.022c-.298.103-.597-.061-.717-.354l-.145-.354c-.047-.108-.073-.233.036-.275l3.179-1.313a.608.608 0 01.465 1.123l-2.828 1.173c-.001.002.013-.002.01 0z"
                                ></path>
                                <path
                                    d="M36.024 45.227c-.107.04-.237-.092-.279-.197l-1.68-4.067c-.11-.266-.013-.605.227-.744.022-.017.037-.024.064-.037l3.014-1.241c.997-.411 1.446-1.556 1.031-2.561a1.987 1.987 0 00-2.521-1.114l-.195.082-2.843 1.182a.583.583 0 01-.742-.339l-.147-.355c-.046-.106-.024-.219.086-.263l3.366-1.389c1.621-.668 3.441.143 4.114 1.759a3.21 3.21 0 01-1.592 4.11l-2.499 1.035 1.298 3.146c.125.3-.053.727-.347.847l-.355.146z"
                                ></path>
                            </svg>