<?xml version="1.0" standalone="no"?>
<!DOCTYPE svg PUBLIC "-//W3C//DTD SVG 20010904//EN"
 "http://www.w3.org/TR/2001/REC-SVG-20010904/DTD/svg10.dtd">
<svg version="1.0" xmlns="http://www.w3.org/2000/svg"
 width="50.000000pt" height="50.000000pt" viewBox="0 0 50.000000 50.000000"
 preserveAspectRatio="xMidYMid meet">
<metadata>
Created by potrace 1.16, written by Peter Selinger 2001-2019
</metadata>
<g transform="translate(0.000000,50.000000) scale(0.005807,-0.005128)"
fill="#000000" stroke="none">
<path d="M3455 9518 c-133 -137 -286 -372 -366 -562 -63 -151 -90 -270 -96
-419 -11 -253 44 -428 179 -573 72 -76 148 -128 242 -165 l71 -28 3 -340 c1
-188 1 -495 0 -683 l-3 -342 -270 233 c-148 129 -274 237 -278 241 -5 4 5 35
22 68 57 113 75 200 75 357 0 158 -14 232 -69 352 -82 179 -238 343 -432 456
-272 158 -706 262 -1126 270 -157 3 -157 3 -157 -167 0 -140 21 -333 51 -473
69 -322 240 -665 434 -871 99 -105 178 -165 290 -217 124 -59 206 -78 340 -78
168 0 286 37 403 125 l63 48 33 -27 c18 -16 83 -71 144 -123 l111 -95 -122 -6
c-142 -7 -253 -31 -340 -73 -51 -26 -64 -37 -73 -66 -19 -59 12 -109 69 -110
15 0 51 13 80 30 188 106 562 69 723 -72 l34 -30 0 -1590 c0 -1446 -1 -1590
-16 -1584 -9 3 -35 6 -58 6 l-42 0 -12 273 c-18 411 -57 731 -123 1000 l-29
119 60 64 c66 71 147 225 171 324 19 76 16 250 -5 330 -74 282 -340 564 -686
729 -198 95 -436 157 -708 186 -146 16 -176 11 -192 -29 -35 -94 -53 -492 -30
-661 29 -202 107 -429 197 -574 129 -207 328 -366 551 -442 92 -31 104 -33
242 -32 96 0 162 5 197 15 l52 15 20 -86 c80 -350 120 -656 128 -981 l6 -246
-234 -12 c-515 -26 -903 -101 -1034 -200 -73 -56 -95 -105 -95 -216 l0 -91
-78 -23 c-146 -45 -236 -100 -279 -170 -22 -35 -23 -46 -23 -262 l0 -225 -131
-28 c-354 -76 -532 -163 -590 -290 -17 -39 -19 -73 -19 -517 0 -539 -2 -518
84 -604 l45 -45 -284 -3 c-262 -3 -284 -4 -304 -22 -27 -25 -28 -79 -1 -106
20 -20 33 -20 3920 -20 l3901 0 26 26 c20 20 24 31 19 57 -13 63 -3 62 -386
67 l-350 5 54 42 c30 23 67 63 83 90 l28 48 0 336 0 336 -27 35 -28 36 30 58
30 57 -2 957 -3 956 -28 42 c-35 54 -100 102 -212 157 -255 125 -752 195
-1390 195 -399 0 -644 -18 -925 -66 -424 -73 -654 -171 -737 -312 -26 -44 -27
-50 -26 -197 l1 -151 -87 12 c-121 18 -311 34 -408 34 l-83 0 0 1178 0 1177
688 688 689 688 12 -73 c16 -92 68 -250 115 -349 l36 -76 0 -304 0 -305 -34
-12 c-18 -7 -50 -28 -70 -48 -137 -133 -103 -354 66 -438 68 -34 179 -36 248
-5 218 98 214 406 -7 496 l-43 18 0 174 0 173 98 -98 c53 -55 121 -117 150
-139 l52 -39 0 -288 0 -288 -34 -14 c-19 -8 -52 -30 -74 -50 -180 -163 -66
-456 178 -456 57 0 74 5 120 33 79 47 114 107 119 204 5 102 -14 148 -89 215
l-57 53 -4 130 c-2 72 -2 185 -1 252 l2 122 76 -34 c107 -49 213 -81 337 -101
l107 -17 0 -142 c0 -78 3 -237 7 -353 l6 -211 -29 -11 c-188 -72 -207 -349
-31 -450 115 -65 237 -40 317 66 84 111 52 278 -70 362 l-39 27 -1 356 0 356
113 6 c117 7 220 28 346 71 41 15 76 26 78 26 2 0 3 -112 3 -249 l0 -249 -29
-7 c-123 -27 -202 -211 -147 -340 51 -120 186 -187 308 -151 220 64 256 374
56 477 l-38 19 0 273 c0 204 3 277 13 289 6 8 48 39 91 69 44 30 120 92 170
139 l89 85 -6 -64 c-4 -35 -7 -479 -7 -987 l0 -923 -42 -23 c-94 -51 -136
-198 -88 -301 42 -89 148 -147 243 -133 108 16 197 121 197 231 0 72 -40 149
-103 195 l-47 35 0 1092 0 1092 55 104 c98 185 144 348 164 581 25 291 -52
631 -199 872 -216 353 -562 590 -980 670 -142 27 -390 25 -537 -4 -505 -100
-879 -406 -1064 -869 -66 -166 -109 -354 -109 -480 l0 -63 -685 -688 -684
-687 -1 547 0 547 52 16 c104 30 272 15 359 -33 41 -23 48 -24 75 -11 41 20
46 69 10 102 -36 34 -162 68 -273 76 l-93 6 101 86 102 87 46 -36 c115 -88
273 -114 436 -72 111 28 196 79 291 174 223 224 359 564 372 934 7 203 12 197
-158 187 -231 -12 -467 -60 -638 -130 -233 -95 -408 -264 -472 -455 -46 -138
-35 -331 24 -453 l24 -48 -120 -107 c-66 -59 -124 -108 -129 -110 -5 -2 -9
187 -9 435 l0 439 38 18 c161 76 276 185 346 328 61 124 77 189 83 338 13 306
-95 599 -331 895 -219 276 -246 290 -351 183z m187 -230 c183 -230 270 -400
323 -629 64 -281 -19 -553 -206 -678 -81 -54 -89 -53 -89 8 0 45 3 51 34 70
82 51 162 172 185 279 12 57 13 142 2 180 l-6 24 -37 -29 c-20 -16 -77 -68
-127 -115 l-91 -86 0 -81 0 -81 -39 0 c-45 0 -51 9 -51 79 0 26 -6 54 -12 63
-14 17 -246 191 -278 208 -19 10 -20 7 -20 -48 0 -148 94 -317 217 -389 41
-24 43 -27 43 -74 0 -27 -3 -49 -6 -49 -3 0 -34 15 -68 33 -86 45 -178 141
-220 230 -119 249 -46 622 193 979 61 91 155 208 167 208 2 0 41 -46 86 -102z
m3063 -1074 c394 -66 760 -335 937 -689 45 -88 91 -225 115 -335 14 -65 18
-128 18 -265 -1 -162 -4 -191 -28 -288 -96 -384 -334 -704 -642 -864 -190 -98
-379 -143 -600 -143 -375 0 -652 106 -904 345 -190 181 -333 448 -388 723 -23
119 -23 356 0 475 103 518 479 913 978 1026 187 43 324 47 514 15z m-5002 -10
c303 -36 597 -135 804 -270 182 -118 279 -231 337 -393 61 -169 59 -341 -6
-493 -11 -27 -25 -48 -30 -48 -5 0 -65 48 -134 108 -68 59 -131 108 -138 110
-7 2 -67 -10 -132 -27 -66 -16 -195 -46 -289 -65 -93 -20 -180 -39 -193 -41
l-23 -6 21 -27 c30 -37 116 -107 170 -138 165 -94 380 -99 526 -14 l32 18 30
-30 30 -31 -28 -23 c-48 -41 -151 -83 -232 -96 -266 -41 -541 117 -745 426
-112 170 -221 444 -263 662 -16 84 -40 313 -40 385 0 15 11 16 88 12 48 -2
145 -11 215 -19z m3332 -226 c-19 -255 -93 -487 -212 -672 -64 -100 -193 -225
-271 -264 -125 -61 -272 -69 -375 -18 -72 35 -85 50 -63 75 17 19 19 19 74 -6
147 -65 326 -26 447 97 41 41 45 49 29 53 -11 3 -111 25 -222 48 l-204 41 -41
-31 c-23 -17 -73 -51 -111 -77 -76 -52 -76 -52 -101 30 -52 171 -9 356 114
489 170 183 536 318 885 326 l58 1 -7 -92z m-2820 -2094 c259 -47 475 -129
653 -247 222 -148 372 -330 443 -537 56 -165 10 -386 -109 -520 l-40 -45 -17
40 c-9 22 -13 45 -8 51 141 185 160 373 58 579 -19 39 -45 84 -59 100 l-25 30
-43 -95 c-24 -52 -79 -177 -123 -277 l-78 -182 71 -156 c40 -85 72 -159 72
-164 0 -15 -25 -20 -157 -32 -113 -10 -136 -10 -193 5 -165 43 -356 170 -474
317 -101 127 -191 332 -231 529 -31 150 -30 544 2 626 7 19 61 14 258 -22z
m3150 -449 c45 -45 46 -82 5 -128 -35 -40 -74 -51 -112 -31 -64 33 -73 121
-17 168 43 37 80 34 124 -9z m413 -475 c71 -43 75 -140 8 -181 -57 -35 -121
-16 -150 46 -22 46 -14 86 26 125 35 36 69 38 116 10z m1408 -64 c38 -38 43
-70 19 -116 -43 -84 -148 -78 -185 9 -16 39 -6 76 30 112 41 42 91 40 136 -5z
m-701 -316 c37 -39 39 -88 5 -126 -33 -34 -59 -43 -93 -32 -69 24 -89 108 -38
159 41 40 87 40 126 -1z m1182 -790 c39 -23 52 -63 32 -99 -30 -53 -107 -53
-134 -1 -19 37 -11 74 22 100 32 25 40 25 80 0z m-1147 -290 c230 -20 505 -71
570 -105 34 -18 39 -44 11 -69 -62 -56 -396 -118 -765 -142 -96 -6 -112 -9
-133 -30 -53 -53 -12 -131 67 -126 483 31 747 74 889 146 62 32 111 87 111
126 0 35 -2 34 41 16 50 -21 85 -51 99 -86 12 -29 11 -33 -16 -61 -41 -43 -97
-74 -183 -99 -41 -12 -84 -32 -97 -45 l-24 -24 0 -320 0 -320 -42 -8 -43 -9
-5 315 -5 315 -25 13 c-38 19 -68 15 -97 -13 l-26 -26 5 -314 4 -314 -39 -11
c-21 -6 -41 -9 -43 -6 -2 2 -4 140 -4 306 -1 286 -2 303 -20 321 -24 24 -77
26 -108 4 -22 -15 -22 -16 -22 -335 l0 -319 -45 0 -45 0 0 299 c0 299 0 300
-22 315 -30 21 -71 20 -99 -3 l-24 -19 1 -305 2 -305 -49 -4 -49 -3 0 215 c0
204 -1 217 -23 254 -13 23 -38 48 -62 60 -38 20 -61 21 -475 27 -463 7 -576
16 -800 65 -283 62 -530 213 -530 323 0 27 40 72 89 99 l41 24 14 -34 c32 -74
125 -132 280 -173 125 -34 434 -85 469 -78 53 10 75 79 39 122 -14 19 -45 27
-188 51 -293 49 -421 87 -448 133 -22 37 34 57 284 106 162 31 296 47 515 61
173 11 868 5 1025 -10z m810 -810 l0 -251 -46 -19 c-25 -11 -48 -20 -50 -20
-2 0 -4 112 -4 250 l0 250 38 19 c20 11 43 20 50 21 9 0 12 -57 12 -250z
m-4120 116 l0 -44 -69 -4 c-81 -4 -111 -24 -111 -72 1 -78 12 -81 405 -84 378
-3 423 2 459 51 19 26 19 30 5 55 -19 35 -67 51 -156 51 l-73 1 0 45 0 45 43
0 c77 0 369 -30 542 -55 426 -63 571 -136 461 -233 -49 -43 -273 -167 -345
-192 -75 -25 -201 -54 -301 -70 -41 -6 -87 -13 -102 -16 -25 -5 -28 -3 -28 21
0 35 -50 85 -84 85 -40 0 -66 -33 -66 -84 0 -42 -1 -44 -37 -50 -21 -3 -68 -6
-105 -6 l-68 0 0 48 c0 53 -16 76 -60 87 -18 4 -34 0 -53 -15 -23 -19 -27 -29
-27 -75 l0 -53 -82 -4 c-132 -5 -128 -7 -128 73 0 57 -3 71 -22 89 -28 26 -72
26 -98 0 -16 -16 -20 -33 -20 -90 l0 -70 -110 0 -110 0 0 93 c0 100 -7 116
-57 131 -22 7 -62 -8 -75 -28 -4 -6 -8 -51 -8 -100 l0 -88 -77 7 c-43 4 -81 9
-85 12 -5 2 -8 54 -8 114 0 103 -1 111 -25 134 -28 29 -76 33 -96 9 -9 -11
-16 -55 -19 -129 l-5 -112 -80 16 -80 16 -5 123 c-6 137 -13 152 -74 152 -56
0 -66 -21 -66 -137 0 -56 -3 -103 -6 -103 -11 0 -50 23 -71 43 -21 19 -23 29
-23 137 0 129 4 137 77 174 128 64 655 141 996 145 l127 1 0 -44z m1813 -111
c180 -28 337 -37 722 -44 l390 -6 5 -195 c3 -107 3 -197 2 -200 -2 -3 -148 -5
-325 -4 -367 1 -605 17 -834 56 l-63 10 0 199 c0 109 2 199 5 199 3 0 47 -7
98 -15z m-275 -427 l-3 -83 -76 -38 c-127 -63 -462 -134 -819 -172 -322 -35
-1010 -35 -1350 -1 -168 18 -417 57 -546 87 -172 39 -324 109 -324 148 0 38
95 94 196 115 26 6 34 3 48 -19 54 -82 300 -162 621 -200 228 -27 689 -40 983
-27 581 26 1090 129 1232 250 14 12 29 21 33 22 4 0 7 -37 5 -82z m2582 -130
c0 -57 -3 -146 -6 -199 l-7 -95 -43 -16 -44 -16 0 203 0 203 38 10 c65 17 62
21 62 -90z m-240 -157 l0 -198 -31 -7 c-62 -12 -59 -23 -59 193 l0 200 28 4
c68 10 62 27 62 -192z m-2052 154 c193 -29 439 -46 770 -52 l332 -6 0 -205 0
-205 -342 6 c-189 3 -390 11 -448 17 -106 10 -366 47 -407 57 -23 5 -23 6 -23
204 0 109 4 199 8 199 5 0 54 -7 110 -15z m1822 -195 l0 -200 -27 -5 c-16 -4
-39 -8 -52 -11 l-24 -5 5 196 c3 107 8 198 11 202 4 3 24 9 44 13 21 4 39 8
41 9 1 0 2 -89 2 -199z m-230 -29 c0 -198 0 -199 -22 -205 -55 -14 -65 -9 -72
40 -3 26 -6 116 -6 200 0 166 -2 162 63 163 l37 1 0 -199z m-240 -20 l0 -198
-31 -7 c-74 -15 -69 -29 -69 199 l0 205 50 0 50 0 0 -199z m-4699 79 c17 -10
19 -23 19 -161 l0 -150 -42 23 -43 23 -2 147 -1 147 25 -10 c13 -5 33 -14 44
-19z m3059 -129 l0 -159 -44 -26 c-25 -14 -47 -26 -50 -26 -8 0 -7 202 1 268
5 48 9 55 47 77 23 14 42 25 44 25 1 0 2 -72 2 -159z m-2800 -98 c0 -84 -3
-153 -6 -153 -4 0 -24 5 -45 12 l-39 11 0 152 0 152 45 -10 45 -10 0 -154z
m2560 8 c0 -166 0 -169 -22 -175 -63 -17 -66 -14 -73 87 -4 50 -5 123 -3 162
l3 69 40 12 c22 7 43 13 48 13 4 1 7 -75 7 -168z m-2332 -55 c2 -142 1 -158
-14 -152 -8 3 -27 6 -40 6 l-24 0 0 158 0 159 38 -6 37 -6 3 -159z m2092 4 l0
-170 -34 0 c-18 0 -48 -3 -65 -6 l-31 -6 0 165 0 166 38 6 c20 4 44 8 52 10
41 8 40 10 40 -165z m-1812 120 c22 0 22 -1 22 -161 l0 -161 -47 6 c-27 4 -60
9 -75 12 l-28 6 0 155 0 156 53 -7 c28 -3 62 -6 75 -6z m1535 -152 c3 -90 5
-164 4 -164 -1 -1 -35 -5 -74 -9 l-73 -7 0 165 0 166 43 4 c23 2 54 4 68 5
l26 2 6 -162z m-1252 132 l79 0 0 -160 0 -160 -79 0 c-44 0 -86 3 -95 6 -14 5
-16 29 -16 166 0 142 2 159 16 154 9 -3 51 -6 95 -6z m959 -159 c0 -180 5
-171 -87 -171 l-43 0 0 165 0 165 65 0 65 0 0 -159z m-580 -11 l0 -160 -75 0
-75 0 0 160 0 160 75 0 75 0 0 -160z m300 0 l0 -160 -75 0 -75 0 0 160 0 160
75 0 75 0 0 -160z m3905 -144 l0 -174 -48 -20 -47 -20 2 180 3 181 35 13 c19
7 40 13 45 13 6 1 10 -63 10 -173z m-5855 155 c0 -17 95 -115 137 -141 l42
-27 -70 -7 c-77 -7 -109 -19 -109 -41 0 -32 40 -38 211 -32 194 6 205 -1 86
-55 -40 -18 -96 -52 -125 -76 -50 -40 -54 -42 -75 -27 -29 20 -49 19 -81 -6
l-26 -20 0 -430 0 -429 -22 0 c-13 0 -33 3 -45 6 l-23 6 0 433 c0 422 0 433
-21 459 -26 33 -79 36 -109 6 -19 -19 -20 -33 -20 -445 0 -234 -3 -425 -6
-425 -4 0 -24 5 -45 12 l-39 11 0 422 c0 282 -4 433 -11 454 -18 52 -68 66
-110 32 l-23 -19 -1 -412 c0 -284 -3 -414 -11 -417 -6 -2 -26 7 -45 20 l-34
23 -3 459 -2 458 22 25 c55 58 151 99 363 153 155 39 195 45 195 30z m5620
-226 l0 -184 -37 -10 c-21 -6 -41 -11 -45 -11 -5 0 -8 83 -8 185 l0 185 28 6
c15 3 32 7 37 9 6 2 13 4 18 4 4 1 7 -82 7 -184z m-1825 125 c132 -16 272 -23
528 -27 l347 -6 0 -198 0 -199 -197 0 c-203 0 -563 16 -643 28 l-45 7 -5 105
c-4 91 -9 111 -32 152 -28 47 -79 93 -134 121 -17 9 -37 23 -45 33 -12 15 -11
16 16 10 17 -3 111 -15 210 -26z m1595 -164 l0 -195 -45 -7 c-25 -3 -49 -4
-52 0 -3 3 -2 90 3 193 l9 188 40 6 c22 3 41 7 43 8 1 0 2 -86 2 -193z m-238
-28 c2 -106 4 -194 4 -194 -1 -1 -22 -5 -48 -8 l-48 -7 0 195 0 195 33 4 c17
2 37 5 43 5 9 2 13 -54 16 -190z m-232 -22 c0 -192 0 -194 -22 -200 -13 -3
-35 -6 -50 -6 l-28 0 0 200 0 200 50 0 50 0 0 -194z m-1626 112 c-4 -35 -9
-66 -11 -71 -2 -4 -27 -19 -54 -32 l-49 -25 0 69 0 70 53 25 c28 13 56 25 60
25 4 1 5 -27 1 -61z m-268 -163 c-2 -7 -22 -16 -43 -19 -21 -4 -46 -9 -56 -12
-16 -5 -18 1 -15 67 l3 74 55 10 55 11 3 -60 c2 -32 1 -64 -2 -71z m575 62
c114 -113 -106 -268 -498 -351 -313 -66 -746 -106 -1213 -113 -433 -7 -743 16
-1105 78 -278 49 -531 149 -500 199 9 14 71 45 121 60 39 12 43 11 82 -18 85
-61 343 -126 672 -168 196 -25 959 -31 1240 -10 570 43 892 122 1024 250 43
42 46 49 46 95 l0 50 51 -21 c28 -12 64 -35 80 -51z m-841 -51 l0 -73 -80 -9
-80 -10 0 72 0 73 58 6 c31 4 62 8 67 10 31 11 35 4 35 -69z m-1752 48 l72 -7
0 -63 c0 -45 -4 -64 -12 -63 -7 0 -56 8 -108 17 l-95 18 -3 58 -3 59 38 -6
c21 -3 71 -9 111 -13z m1452 -78 l0 -73 -71 -7 c-39 -4 -73 -5 -75 -3 -3 2 -1
36 2 75 l7 71 66 4 c36 2 67 4 69 5 1 1 2 -31 2 -72z m-1087 54 l67 0 0 -75 0
-74 -52 5 c-29 3 -77 7 -105 10 l-53 5 0 71 0 71 38 -7 c20 -3 67 -6 105 -6z
m427 -80 l0 -70 -105 0 -105 0 0 70 0 70 105 0 105 0 0 -70z m370 0 l0 -70
-110 0 -110 0 0 70 0 70 110 0 110 0 0 -70z m3460 -264 c0 -102 4 -95 -62
-110 l-28 -6 0 94 0 94 38 10 c20 5 40 10 45 11 4 1 7 -41 7 -93z m-2014 -322
c-2 -6 -23 -25 -45 -43 l-41 -33 0 184 0 184 43 30 42 30 3 -170 c1 -94 1
-175 -2 -182z m438 316 c71 -5 243 -10 382 -11 l254 -1 0 -98 0 -98 -106 -7
c-123 -9 -404 1 -624 21 -85 7 -161 14 -167 14 -10 0 -13 27 -13 101 l0 102
73 -7 c39 -3 130 -11 201 -16z m1106 -75 c0 -52 -4 -95 -9 -95 -5 0 -23 -3
-40 -6 l-31 -6 0 95 c0 102 0 103 58 106 21 1 22 -2 22 -94z m-232 -22 l-3
-98 -47 -3 -48 -3 0 95 c0 103 0 104 63 105 l38 1 -3 -97z m-4573 35 l45 -22
0 -178 0 -178 -40 20 c-21 11 -44 29 -50 39 -10 19 -15 341 -5 341 2 0 25 -10
50 -22z m2965 -222 l0 -194 -27 -6 c-16 -4 -36 -9 -45 -12 -17 -5 -18 9 -18
189 l0 195 38 10 c20 5 40 10 45 11 4 1 7 -86 7 -193z m-2724 153 l44 -11 0
-190 c0 -104 -3 -187 -7 -185 -5 3 -27 10 -50 16 l-43 12 0 184 c0 102 3 185
6 185 3 0 25 -5 50 -11z m5264 -172 l0 -173 -35 -17 c-20 -9 -40 -17 -45 -17
-6 0 -10 65 -10 164 l0 164 43 26 c23 14 43 25 45 26 1 0 2 -78 2 -173z
m-2770 -36 l0 -198 -31 -7 c-63 -12 -60 -24 -57 191 l3 197 25 7 c63 18 60 28
60 -190z m-2180 -44 l0 -190 -52 7 c-28 4 -55 9 -60 12 -4 3 -8 90 -8 193 l0
188 60 -10 60 -10 0 -190z m1950 4 c0 -215 1 -211 -56 -211 l-24 0 0 199 c0
199 0 200 23 204 61 12 57 26 57 -192z m-1711 163 l31 -6 0 -195 0 -195 -31 6
c-17 3 -44 6 -60 6 l-29 0 0 195 0 195 29 0 c16 0 43 -3 60 -6z m1481 -194 l0
-200 -45 0 -45 0 0 194 c0 210 -2 204 58 205 l32 1 0 -200z m-230 -10 l0 -200
-50 0 -50 0 0 194 c0 215 -4 202 68 205 l32 1 0 -200z m-980 -11 l0 -201 -22
6 c-13 3 -35 6 -50 6 l-28 0 0 195 0 195 50 0 50 0 0 -201z m500 1 l0 -200
-50 0 -50 0 0 193 c0 107 3 197 7 200 3 4 26 7 50 7 l43 0 0 -200z m230 128
c0 -40 3 -130 7 -200 l6 -128 -51 0 -52 0 0 200 0 200 45 0 45 0 0 -72z m-480
-133 l0 -195 -50 0 -50 0 0 195 0 195 50 0 50 0 0 -195z m3960 36 c0 -156 0
-159 -22 -165 -13 -3 -33 -6 -46 -6 l-23 0 3 157 3 158 30 6 c17 4 36 7 43 8
9 1 12 -37 12 -158z m-240 -40 l0 -159 -40 -4 -40 -4 0 158 0 157 28 4 c15 2
33 5 40 6 9 1 12 -37 12 -158z m-1042 83 l342 -7 0 -133 0 -134 -455 0 -455 0
0 153 0 152 113 -12 c61 -7 266 -16 455 -19z m812 -114 l0 -150 -40 0 -40 0 0
143 c0 79 3 147 7 150 3 4 21 7 40 7 l33 0 0 -150z m-230 -15 l0 -145 -44 0
-43 0 -6 68 c-4 37 -7 99 -7 139 0 71 0 72 28 76 78 12 72 24 72 -138z"/>
<path d="M3605 9040 c4 -80 11 -149 16 -155 6 -6 32 13 71 52 l62 62 -37 53
c-20 29 -55 71 -78 93 l-41 40 7 -145z"/>
<path d="M3428 9073 c-71 -107 -83 -132 -73 -142 6 -5 44 -37 85 -71 l75 -61
3 73 c3 90 -19 260 -34 265 -7 2 -32 -27 -56 -64z"/>
<path d="M3698 8816 l-87 -83 10 -129 c6 -71 14 -134 18 -141 4 -7 33 12 81
55 42 37 97 85 123 108 l48 40 -32 90 c-35 99 -56 144 -67 144 -4 -1 -46 -38
-94 -84z"/>
<path d="M3286 8803 c-26 -81 -48 -186 -39 -193 24 -22 267 -190 274 -190 10
0 12 130 3 218 l-7 60 -96 70 c-53 38 -101 72 -108 75 -7 5 -17 -10 -27 -40z"/>
<path d="M6390 8094 c-14 -2 -59 -9 -100 -15 -456 -68 -854 -462 -935 -928
-20 -111 -19 -339 0 -433 82 -386 346 -722 680 -862 50 -20 133 -49 185 -63
84 -23 114 -26 265 -27 185 -1 254 8 399 56 340 110 607 383 726 742 165 500
-14 1036 -442 1327 -143 97 -325 169 -498 195 -87 13 -219 17 -280 8z m550
-389 c228 -131 421 -245 428 -254 9 -11 12 -134 12 -536 l0 -522 -409 -237
c-226 -130 -417 -239 -426 -242 -9 -4 -14 -12 -11 -19 3 -8 -6 -14 -23 -17
-23 -3 -118 48 -472 253 -244 142 -447 259 -451 261 -4 2 -8 239 -8 528 l-1
525 452 262 c411 239 455 262 473 250 12 -8 208 -121 436 -252z"/>
<path d="M6058 7677 c-230 -133 -414 -245 -410 -249 13 -12 817 -471 832 -475
18 -3 833 468 832 481 0 9 -819 486 -832 486 -3 0 -193 -110 -422 -243z m745
-33 c177 -102 328 -191 335 -198 10 -10 9 -15 -5 -28 -10 -8 -161 -97 -335
-197 l-317 -183 -328 190 c-224 129 -328 195 -328 206 0 12 104 77 325 206
179 103 326 189 328 189 1 1 147 -83 325 -185z"/>
<path d="M6168 7600 c-157 -91 -285 -167 -283 -170 2 -3 19 -13 38 -23 l34
-19 239 138 c131 75 245 142 252 149 8 7 12 28 10 51 l-3 39 -287 -165z"/>
<path d="M6502 7724 l3 -47 215 -124 c118 -68 231 -134 252 -145 l36 -21 37
23 36 22 -28 18 c-15 9 -146 85 -291 168 l-263 152 3 -46z"/>
<path d="M6415 7607 l-40 -23 0 -219 0 -220 43 -23 42 -23 0 265 c0 146 -1
266 -2 266 -2 0 -21 -11 -43 -23z"/>
<path d="M6500 7365 c0 -146 2 -265 5 -265 3 0 23 11 45 25 l40 25 0 215 0
215 -40 25 c-22 14 -42 25 -45 25 -3 0 -5 -119 -5 -265z"/>
<path d="M6162 7461 c-85 -49 -156 -91 -158 -94 -5 -4 307 -187 320 -187 3 0
6 83 6 185 0 102 -3 185 -7 185 -5 0 -77 -40 -161 -89z"/>
<path d="M6630 7365 c0 -174 1 -187 18 -180 21 8 312 176 312 180 0 4 -292
173 -313 181 -16 6 -17 -10 -17 -181z"/>
<path d="M5622 6904 l3 -487 410 -238 c226 -131 413 -238 418 -239 4 0 6 219
5 487 l-3 488 -410 237 c-225 130 -413 237 -418 237 -4 1 -6 -218 -5 -485z
m424 154 l334 -192 0 -394 c0 -249 -4 -392 -10 -390 -5 2 -158 89 -340 193
l-330 190 0 393 c0 215 3 392 6 392 4 0 157 -87 340 -192z"/>
<path d="M5740 6849 l0 -331 33 19 32 19 3 297 2 296 -29 16 c-17 8 -32 15
-36 15 -3 0 -5 -149 -5 -331z"/>
<path d="M5850 6931 c0 -105 3 -191 6 -191 9 0 324 184 324 190 0 4 -298 179
-322 188 -4 2 -8 -82 -8 -187z"/>
<path d="M6033 6793 l-183 -106 0 -48 c0 -27 3 -49 6 -49 4 0 110 59 236 132
l228 131 -41 24 c-22 12 -46 23 -53 23 -6 0 -93 -48 -193 -107z"/>
<path d="M6140 6702 c-102 -59 -203 -118 -225 -130 l-39 -24 39 -24 c22 -13
47 -24 55 -23 8 0 94 46 190 102 l175 102 3 53 c2 28 -1 52 -5 52 -4 -1 -91
-49 -193 -108z"/>
<path d="M6180 6569 c-85 -49 -156 -93 -158 -97 -1 -4 69 -48 155 -98 l158
-92 3 94 c1 52 1 137 0 188 l-3 95 -155 -90z"/>
<path d="M5798 6504 c-16 -8 -28 -18 -28 -22 0 -7 532 -319 561 -330 5 -2 9
16 9 40 l-1 43 -248 143 c-136 78 -252 142 -257 142 -5 -1 -21 -8 -36 -16z"/>
<path d="M6918 7148 l-418 -241 0 -484 c0 -458 1 -485 18 -478 9 3 198 111
419 238 l402 232 1 488 c0 268 -1 487 -2 487 -2 0 -191 -109 -420 -242z m342
-292 l0 -393 -317 -183 c-175 -101 -328 -190 -341 -198 l-22 -14 2 398 3 399
330 191 c182 106 333 193 338 193 4 1 7 -176 7 -393z"/>
<path d="M7173 7158 l-33 -20 0 -291 0 -292 40 -23 40 -23 0 336 c0 184 -3
335 -7 334 -5 0 -23 -10 -40 -21z"/>
<path d="M6940 7024 c-80 -47 -151 -89 -159 -93 -9 -6 36 -37 146 -100 88 -50
163 -91 167 -91 3 0 6 83 6 185 0 102 -3 185 -7 184 -5 0 -73 -39 -153 -85z"/>
<path d="M6682 6874 c-24 -15 -40 -30 -35 -34 4 -4 94 -55 198 -115 105 -59
205 -116 223 -127 l32 -20 0 55 0 55 -182 103 c-100 57 -184 105 -187 106 -3
2 -26 -9 -49 -23z"/>
<path d="M6622 6750 l3 -52 182 -105 182 -105 46 27 46 27 -218 125 c-120 69
-224 127 -231 130 -10 4 -12 -7 -10 -47z"/>
<path d="M6620 6466 c0 -102 2 -186 3 -186 14 0 309 178 308 186 -1 8 -80 56
-243 148 l-68 38 0 -186z"/>
<path d="M6870 6375 l-245 -143 -3 -47 c-3 -46 -3 -46 20 -32 13 9 138 81 278
162 140 81 259 150 263 155 6 5 -57 53 -66 49 -1 0 -112 -65 -247 -144z"/>
<path d="M1536 8068 c-6 -37 6 -174 16 -183 5 -5 198 22 205 28 14 15 -150
177 -194 191 -18 6 -21 2 -27 -36z"/>
<path d="M1830 8050 c0 -47 21 -78 122 -176 82 -80 274 -256 336 -308 l22 -19
0 195 0 196 -52 22 c-84 36 -185 69 -293 96 -131 31 -135 31 -135 -6z"/>
<path d="M2410 7667 l0 -213 62 -54 c34 -30 119 -102 188 -159 l125 -103 7 38
c12 68 8 207 -7 273 -34 142 -141 287 -281 381 -42 27 -80 50 -85 50 -5 0 -9
-91 -9 -213z"/>
<path d="M1700 7804 c-47 -7 -89 -13 -95 -14 -5 0 -16 -4 -24 -9 -11 -7 -11
-17 4 -62 15 -48 83 -218 91 -228 3 -3 371 72 417 86 10 2 17 8 15 13 -2 5
-61 58 -132 119 -143 124 -128 119 -276 95z"/>
<path d="M2110 7484 c-36 -7 -133 -28 -216 -45 -84 -17 -157 -35 -164 -39 -14
-9 52 -141 99 -199 l27 -33 155 31 c85 18 214 46 287 63 l132 32 -27 29 c-45
47 -204 177 -216 176 -7 0 -41 -7 -77 -15z"/>
<path d="M4925 7980 c-23 -9 -141 -127 -134 -134 4 -5 123 -26 146 -26 15 0
29 124 17 150 -7 13 -14 16 -29 10z"/>
<path d="M4614 7940 c-61 -16 -136 -40 -167 -54 l-57 -25 0 -140 c0 -78 2
-141 5 -141 10 0 305 272 325 300 19 27 28 90 13 90 -5 -1 -58 -14 -119 -30z"/>
<path d="M4264 7794 c-97 -64 -176 -161 -209 -254 -15 -42 -23 -245 -11 -258
3 -2 58 40 122 94 64 55 125 106 135 114 16 13 18 32 19 135 2 178 1 195 -9
195 -4 0 -26 -12 -47 -26z"/>
<path d="M4630 7693 c-57 -48 -99 -88 -94 -90 5 -1 78 -18 162 -36 140 -31
154 -33 162 -17 18 33 70 171 70 185 0 13 -48 26 -151 40 l-46 6 -103 -88z"/>
<path d="M4388 7474 c-43 -36 -78 -69 -78 -73 0 -10 87 -33 251 -66 63 -13
127 -27 141 -30 23 -6 29 0 65 57 44 70 58 104 45 111 -12 8 -300 67 -325 67
-12 0 -56 -29 -99 -66z"/>
<path d="M2023 5798 c-20 -32 -11 -423 11 -445 7 -7 468 -64 474 -58 2 2 -6
26 -18 52 -17 35 -76 100 -222 243 -226 219 -233 226 -245 208z"/>
<path d="M2190 5786 c0 -14 264 -276 278 -276 4 0 26 44 49 97 32 72 39 99 30
105 -24 16 -167 57 -234 68 -37 6 -80 13 -95 15 -19 3 -28 0 -28 -9z"/>
<path d="M2627 5663 c-3 -4 -26 -55 -52 -113 l-46 -105 62 -127 c35 -71 66
-128 70 -128 4 0 43 84 88 187 l82 187 -23 18 c-29 22 -126 74 -155 82 -12 4
-24 3 -26 -1z"/>
<path d="M2808 5339 c-49 -111 -88 -210 -88 -221 0 -22 97 -228 108 -228 6 0
135 289 204 459 l22 53 -71 69 c-39 38 -75 69 -79 69 -5 0 -48 -91 -96 -201z"/>
<path d="M2047 5238 c3 -18 20 -71 37 -118 l31 -85 205 -22 c113 -12 238 -25
278 -29 l73 -7 -13 29 c-16 37 -98 187 -106 196 -4 4 -104 18 -222 32 -118 14
-232 28 -252 31 l-38 5 7 -32z"/>
<path d="M2170 4946 c0 -13 15 -37 110 -174 118 -171 283 -255 523 -269 59 -3
107 -3 107 1 0 15 -181 385 -191 392 -6 3 -515 64 -540 64 -5 0 -9 -6 -9 -14z"/>
<path d="M5685 3449 c-293 -14 -507 -37 -534 -57 -38 -28 -47 -47 -35 -79 17
-49 40 -53 229 -37 434 35 789 36 1135 4 231 -22 284 -11 278 57 -5 61 -34 74
-200 89 -160 15 -539 35 -638 32 -36 0 -141 -5 -235 -9z"/>
<path d="M5929 3139 c-28 -28 -22 -76 12 -102 23 -17 31 -18 62 -8 19 7 38 19
41 27 29 75 -59 139 -115 83z"/>
<path d="M5036 2528 c-37 -52 -8 -108 56 -108 43 0 68 25 68 68 0 58 -91 87
-124 40z"/>
<path d="M5310 2510 c-53 -53 6 -136 77 -109 34 13 43 26 43 62 0 36 -32 67
-70 67 -17 0 -39 -9 -50 -20z"/>
<path d="M5615 2508 c-28 -16 -35 -28 -35 -65 0 -22 7 -37 22 -47 69 -49 154
30 101 92 -22 26 -62 35 -88 20z"/>
<path d="M5866 2496 c-31 -31 -33 -55 -5 -90 27 -34 71 -35 104 -1 31 30 31
47 3 79 -35 39 -72 43 -102 12z"/>
<path d="M5027 1972 c-22 -25 -21 -75 1 -95 42 -38 122 -7 122 46 0 54 -87 89
-123 49z"/>
<path d="M5300 1950 c-20 -20 -26 -65 -12 -86 13 -20 53 -35 75 -28 61 18 77
77 31 113 -34 26 -68 27 -94 1z"/>
<path d="M5601 1947 c-37 -19 -48 -63 -24 -96 33 -43 90 -41 119 4 22 34 4 80
-38 94 -17 6 -31 11 -32 11 -1 0 -12 -6 -25 -13z"/>
<path d="M5856 1936 c-65 -64 16 -153 92 -100 27 19 30 74 5 97 -34 30 -70 31
-97 3z"/>
<path d="M5377 1362 c-21 -23 -22 -85 -2 -102 26 -22 85 -17 106 9 26 31 24
57 -6 86 -29 30 -75 33 -98 7z"/>
<path d="M5666 1346 c-32 -31 -33 -69 -4 -96 45 -42 118 -15 118 44 0 37 -21
61 -62 71 -21 5 -33 1 -52 -19z"/>
<path d="M5950 1363 c-44 -16 -55 -91 -18 -117 69 -49 154 30 101 92 -19 23
-58 34 -83 25z"/>
<path d="M5382 514 c-16 -11 -22 -25 -22 -54 0 -43 26 -70 68 -70 29 0 72 42
72 70 0 28 -43 70 -72 70 -13 0 -34 -7 -46 -16z"/>
<path d="M5656 488 c-48 -68 33 -141 102 -92 28 19 30 74 4 97 -28 25 -87 22
-106 -5z"/>
<path d="M5927 492 c-22 -25 -21 -75 1 -95 42 -39 122 -7 122 48 0 56 -86 88
-123 47z"/>
<path d="M2351 8744 c-12 -15 -21 -41 -21 -59 0 -18 9 -44 21 -59 16 -21 29
-26 64 -26 35 0 48 5 64 26 28 36 26 76 -5 113 -35 42 -92 44 -123 5z"/>
<path d="M4435 8742 c-35 -7 -55 -33 -55 -73 0 -60 22 -69 166 -69 120 0 123
0 143 26 27 34 27 76 0 100 -17 15 -37 18 -127 19 -60 0 -117 -2 -127 -3z"/>
<path d="M5521 8704 c-35 -29 -40 -67 -16 -113 16 -31 33 -41 74 -41 85 0 116
126 40 165 -40 21 -63 19 -98 -11z"/>
<path d="M1219 6541 c-36 -36 -38 -79 -6 -115 30 -34 65 -40 106 -19 62 32 62
117 0 148 -42 22 -67 18 -100 -14z"/>
<path d="M4251 5064 c-75 -63 -4 -175 91 -142 34 12 48 35 48 80 -1 37 -14 59
-47 76 -33 18 -59 14 -92 -14z"/>
<path d="M8026 4946 c-44 -43 -25 -107 34 -121 60 -14 103 65 63 113 -30 35
-68 38 -97 8z"/>
<path d="M8019 4714 c-23 -25 -24 -31 -28 -205 -4 -195 2 -228 45 -248 35 -16
48 -14 78 10 l26 20 0 205 c0 191 -1 205 -20 224 -28 28 -71 26 -101 -6z"/>
<path d="M893 4610 c-39 -16 -45 -42 -41 -202 3 -144 4 -151 27 -169 32 -26
73 -24 99 4 21 22 22 33 22 174 0 129 -3 154 -17 171 -21 25 -60 35 -90 22z"/>
<path d="M4985 4384 c-72 -37 -111 -109 -103 -189 14 -124 168 -195 271 -125
97 67 113 189 35 269 -58 60 -140 78 -203 45z"/>
<path d="M5662 4277 c-27 -29 -30 -97 -5 -122 59 -60 153 -23 153 60 0 74 -98
115 -148 62z"/>
<path d="M7044 4121 c-54 -33 -55 -108 -2 -145 74 -52 162 25 123 108 -11 22
-28 38 -47 45 -40 14 -38 14 -74 -8z"/>
<path d="M1633 4026 c-23 -20 -28 -32 -27 -67 3 -116 165 -118 164 -2 -1 45
-16 68 -54 83 -40 15 -52 13 -83 -14z"/>
<path d="M2725 3845 c-36 -35 -35 -96 1 -124 52 -41 118 -18 130 45 15 83 -74
137 -131 79z"/>
<path d="M1290 3669 c-68 -28 -120 -111 -120 -189 0 -187 223 -268 347 -127
76 87 61 222 -33 294 -30 23 -48 28 -103 30 -36 2 -77 -2 -91 -8z"/>
<path d="M1945 3335 c-34 -33 -33 -77 1 -104 24 -19 40 -21 184 -21 172 0 180
3 195 62 6 22 1 33 -23 58 l-30 30 -152 0 c-147 0 -152 -1 -175 -25z"/>
<path d="M2467 3332 c-10 -11 -17 -35 -17 -60 0 -33 5 -45 25 -58 47 -31 115
6 115 64 0 56 -87 94 -123 54z"/>
<path d="M1032 2787 c-12 -13 -25 -37 -28 -55 -5 -26 -1 -36 24 -62 38 -37 80
-40 118 -6 21 18 28 32 28 61 0 73 -93 114 -142 62z"/>
<path d="M8495 328 c-48 -27 -60 -87 -26 -129 27 -33 95 -33 122 0 35 42 21
103 -28 129 -27 15 -42 15 -68 0z"/>
<path d="M22 307 c-32 -34 -30 -89 4 -116 79 -62 180 44 109 114 -32 33 -83
34 -113 2z"/>
</g>
</svg>
