<?xml version="1.0" encoding="UTF-8"?><svg id="Layer_1" xmlns="http://www.w3.org/2000/svg" width="150" height="150" viewBox="0 0 150 150"><defs>
 </defs><path class="cls-2" d="m36.4523,12.5111c1-.4,2.1.7,1.7,1.7-.3.8-1.4,1.1-2,.4-.7-.5-.5-1.7.3-2.1h0Z"/><path class="cls-2" d="m64.3523,13.1111c.6-.3,1.5.2,1.3,1,0,.6-.8,1.1-1.3.7-.6-.4-.6-1.4,0-1.7Z"/><path class="cls-2" d="m67.5523,13.0111c.6-.3,1.4-.1,2.1-.1.7.1,1.6-.2,2.2.3.5.5.1,1.4-.4,1.7-.7.1-1.5,0-2.3,0-.6,0-1.4.2-1.8-.4-.5-.4-.3-1.1.2-1.5h0Z"/><path class="cls-2" d="m84.1523,14.1111c.1-.5.6-.9,1.1-1,.4.1.9.3,1.2.7.5.8-.1,2-1,2-.9.1-1.5-.9-1.3-1.7h0Z"/><path class="cls-2" d="m23.6523,22.6111c.2.1.5.1.7.3.9.8,1.7,1.6,2.5,2.6-1,.1-2.1.3-3.1.4-.1-1.1-.4-2.2-.1-3.3Z"/><path class="cls-2" d="m28.1523,23.0111c1.3.2,2.6.6,3.9.9,1.1.4,2.3.7,3.3,1.4v5.6c-.7-.5-1.4-1.2-2-1.8-1.6-1.6-3.5-3-4.9-4.7-.4-.3-.5-.9-.3-1.4h0Z"/><path class="cls-2" d="m36.8523,26.0111c2.3,1.3,4.4,3.2,5.3,5.7.7,1.8.6,3.7.3,5.5-1.1-.9-2.3-1.9-3.4-2.8-.8-.6-1.4-1.3-2.2-1.9.1-2.2,0-4.3,0-6.5h0Z"/><path class="cls-2" d="m24.0523,27.6111c1.3-.3,2.7-.5,4-.6.4.2.8.6,1.2.9,1,.9,2,1.7,3,2.6-2.2.5-4.4.9-6.5,1.4-.7-1.4-1.3-2.8-1.7-4.3h0Z"/><path class="cls-2" d="m26.3523,33.5111c2.1-.6,4.2-.9,6.3-1.4.4-.1,1-.3,1.3.1,1,.9,2.2,1.7,3.1,2.7-2.9.8-5.8,1.3-8.7,1.9-.8-1-1.5-2.1-2-3.3h0Z"/><path class="cls-2" d="m18.2523,40.8111c.1-.6.9-1.1,1.4-.6.7.5.1,1.6-.6,1.4-.4,0-.6-.5-.8-.8h0Z"/><path class="cls-2" d="m18.9523,46.3111c.9-.4,2,.4,1.8,1.3-.1,1-1.4,1.5-2.1.7-.7-.5-.4-1.6.3-2h0Z"/><path class="cls-2" d="m64.5523,69.9111c.2-.4.5-.9,1-1,.9-.3,1.9.7,1.6,1.6-.2.8-1.3,1.1-1.9.6-.5-.2-.6-.7-.7-1.2h0Z"/><path class="cls-2" d="m123.3523,70.8111c.8-.1,1.5.8,1.1,1.5-.3.7-1.2.8-1.6.2-.6-.6-.2-1.6.5-1.7Z"/><path class="cls-2" d="m123.2523,74.2111c.6-.2,1.3.4,1.3,1v5.1c0,.6-.4,1.1-1,1.1-.6.1-1.2-.5-1.2-1.1v-4.9c.1-.5.4-1,.9-1.2h0Z"/><path class="cls-2" d="m13.5523,76.3111c.6-.4,1.4,0,1.6.6.1.7,0,1.4,0,2.1,0,.8.1,1.5,0,2.3-.1.7-1.2,1-1.7.5-.4-.4-.4-.9-.4-1.4v-3.2c0-.4.2-.7.5-.9h0Z"/><path class="cls-2" d="m80.0479,81.61c-.3-1.4-1.9-2.6-3.4-2.1-1.3.4-2.1,1.8-1.9,3.1.3,1.2,1.4,2,2.5,2.1,1.7.1,3.1-1.5,2.8-3.1Zm-2.7,1c-.5,0-.7-.8-.3-1.1.4-.2.9,0,.9.5.1.4-.2.7-.6.6Z"/><path class="cls-2" d="m87.0523,81.0111c1-.5,2.1.7,1.7,1.7-.2.8-1.3,1.1-2,.6-.7-.6-.5-1.9.3-2.3h0Z"/><path class="cls-2" d="m107.9523,83.6111c.6-.3,1.4.1,1.7.7.3.5.1,1.3-.4,1.6-.8.6-2.1-.3-1.9-1.3-.1-.5.3-.8.6-1Z"/><path class="cls-2" d="m25.3523,84.9111c.6-.2,1.4.1,1.6.8.4.9-.6,2.1-1.5,1.6-1-.4-1.2-2-.1-2.4Z"/><path class="cls-2" d="m42.0523,87.7111c.8-.4,1.8.3,1.6,1.2,0,.5-.4,1.1-1,1.1-.7.1-1.3-.5-1.3-1.1-.1-.6.2-1,.7-1.2h0Z"/><path class="cls-2" d="m22.2479,90.71c-.7-.4-1.5-.5-2.3-.2-1.6.5-2.6,2.5-1.9,4,.4,1.2,1.7,2,2.9,1.9,1.7-.1,3-1.6,2.9-3.2-.1-1-.7-2-1.6-2.5Zm-.7,3.1c-.3.6-1.4.5-1.5-.2,0-.4.1-.8.5-1,.7-.4,1.4.5,1,1.2Z"/><path class="cls-2" d="m29.4523,96.6111c-.1-.6.5-1.2,1.1-1.2h3.7c.6-.1,1.2.4,1.3,1,.1.5-.3.9-.7,1.2h-4.1c-.6-.1-1.2-.5-1.3-1h0Z"/><path class="cls-2" d="m37.7523,97.3111c-.6-.6-.1-1.7.7-1.8.6.2,1.4.8,1,1.5-.2.6-1.2.9-1.7.3h0Z"/><path class="cls-2" d="m89.9523,108.4111c.7-.5,1.7.2,1.6,1-.2.7-1.2,1-1.7.5-.5-.3-.4-1.1.1-1.5h0Z"/><path class="cls-2" d="m85.8523,108.4111c.7-.5,1.7.2,1.6,1-.2.7-1.2,1-1.7.5-.5-.3-.4-1.1.1-1.5h0Z"/><path class="cls-2" d="m81.4523,108.2111c.7-.5,1.7.2,1.6,1-.2.7-1.2,1-1.7.5-.5-.3-.4-1.2.1-1.5h0Z"/><path class="cls-2" d="m77.3523,107.9111c.7-.5,1.7.2,1.6,1-.2.7-1.2,1-1.7.5-.5-.4-.4-1.2.1-1.5h0Z"/><path class="cls-2" d="m89.7523,117.0111c.7-.5,1.7.2,1.6,1-.2.7-1.2,1-1.7.5-.5-.3-.4-1.2.1-1.5h0Z"/><path class="cls-2" d="m85.6523,117.0111c.7-.5,1.7.2,1.6,1-.2.7-1.2,1-1.7.5-.5-.3-.4-1.2.1-1.5h0Z"/><path class="cls-2" d="m81.2523,116.8111c.7-.5,1.7.2,1.6,1-.2.7-1.2,1-1.7.5-.5-.4-.4-1.2.1-1.5h0Z"/><path class="cls-2" d="m77.1523,116.4111c.7-.5,1.7.2,1.6,1-.2.7-1.2,1-1.7.5-.5-.3-.4-1.1.1-1.5h0Z"/><path class="cls-2" d="m90.9523,126.0111c.7-.5,1.7.2,1.6,1-.2.7-1.2,1-1.7.5-.5-.3-.4-1.1.1-1.5h0Z"/><path class="cls-2" d="m86.8523,126.0111c.7-.5,1.7.2,1.6,1-.2.7-1.2,1-1.7.5-.5-.3-.4-1.1.1-1.5h0Z"/><path class="cls-2" d="m82.4523,125.8111c.7-.5,1.7.2,1.6,1-.2.7-1.2,1-1.7.5-.5-.3-.4-1.1.1-1.5h0Z"/><path class="cls-2" d="m90.9523,139.1111c.7-.5,1.7.2,1.6,1-.2.7-1.2,1-1.7.5-.5-.4-.4-1.2.1-1.5h0Z"/><path class="cls-2" d="m86.8523,139.1111c.7-.5,1.7.2,1.6,1-.2.7-1.2,1-1.7.5-.5-.4-.4-1.2.1-1.5h0Z"/><path class="cls-2" d="m82.4523,138.9111c.7-.5,1.7.2,1.6,1-.2.7-1.2,1-1.7.5-.5-.4-.4-1.2.1-1.5h0Z"/><path class="cls-2" d="m97.7879,103.42v1.21c-.04-.39-.03-.81,0-1.21Z"/><path class="cls-2" d="m104.9479,101.95v1.39c-.04-.4301-.01-.89,0-1.39Z"/><path class="cls-2" d="m16.1523,103.8111c.9-.5,2.1.6,1.7,1.5-.2.5-.7.9-1.2.8-.6,0-1-.6-1.3-1.1.1-.3.3-.9.8-1.2h0Z"/><path class="cls-2" d="m22.4679,131.69c-.01-.02-.02-.03-.02-.05v-.28c0,.11.0099.22.02.33Z"/><path class="cls-2" d="m130.2523,141.7111c.9-.4,1.8.7,1.5,1.6-.3.9-1.8.9-2.1.1-.5-.6-.1-1.5.6-1.7h0Z"/><path class="cls-2" d="m.6523,141.8111c.8-.4,1.9.3,1.7,1.2-.1.8-1.1,1.3-1.8.8-.8-.4-.7-1.6.1-2h0Z"/><path class="cls-2" d="m126.6523,142.0111c.7-.5,1.7.6,1.3,1.3-.2.4-.7.7-1.2.5-.6-.3-.7-1.4-.1-1.8h0Z"/><path class="cls-2" d="m108.6579,133.42c-.01.03-.01.06-.01.09v-.09h.01Z"/><path class="cls-2" d="m75.4579,24.4c-.2,0-.4.1-.5.2-.7.6-1.3,1.2-1.8,1.9.8.1,1.5.2,2.3.3.1-.8.3-1.6,0-2.4h0Z"/><path class="cls-2" d="m72.2579,24.7c-1,.1-1.9.4-2.8.7-.8.3-1.6.5-2.4,1v4.1c.5-.4,1-.9,1.5-1.3,1.2-1.1,2.5-2.2,3.6-3.4.2-.4.2-.8.1-1.1h0Z"/><path class="cls-2" d="m65.8579,26.9c-1.7.9-3.2,2.3-3.9,4.1-.5,1.3-.4,2.7-.2,4,.8-.7,1.6-1.4,2.5-2,.5-.5,1.1-1,1.6-1.4,0-1.6.1-3.2,0-4.7h0Z"/><path class="cls-2" d="m75.2579,28c-1-.2-2-.3-2.9-.4-.3.2-.6.5-.8.7-.7.7-1.5,1.2-2.2,1.9,1.6.3,3.2.7,4.8,1,.3-1.1.8-2.1,1.1-3.2h0Z"/><path class="cls-2" d="m73.5579,32.3c-1.5-.4-3-.6-4.6-1-.3,0-.7-.2-.9.1-.7.7-1.6,1.2-2.2,2,2.1.6,4.2,1,6.3,1.4.5-.8,1-1.6,1.4-2.5h0Z"/><path class="cls-2" d="m54.8579,6.1c.9.7,1.5,1.7,2.2,2.6-.6.6-1.2,1.3-1.9,1.9-.2-.7-.1-1.4-.2-2,.1-.8-.1-1.6-.1-2.5h0Z"/><path class="cls-2" d="m53.0579,6.7c.2.1.2.4.2.6.1,1.5.5,3,.3,4.4-.8-.7-1.7-1.3-2.5-2,.6-1,1.3-2.1,2-3h0Z"/><path class="cls-2" d="m57.8579,10.4c.7,1.1,1,2.3,1.4,3.5-1.3,1-2.4,2.1-3.7,3.2-.2-1.4-.3-2.8-.4-4.2.9-.8,1.8-1.7,2.7-2.5h0Z"/><path class="cls-2" d="m50.4579,11.2c1.1.7,2.1,1.5,3.2,2.3.1,1.4.2,2.7.2,4.1-1.5-1-2.9-2-4.4-3.1.3-1,.4-2.2,1-3.3h0Z"/><path class="cls-2" d="m40.0579,59.8c1,.4,2,.9,2.8,1.6v.1c-.8,1.9-1.6,3.8-2.4,5.6-.7-1.3-1.2-2.6-1.9-3.8.5-1.2,1-2.3,1.5-3.5h0Z"/><path class="cls-2" d="m33.4579,57.9c1.9.2,3.7.6,5.4,1.3-.4,1-.8,1.9-1.3,2.9-1.5-1.3-2.9-2.7-4.2-4.1l.1-.1h0Z"/><path class="cls-2" d="m44.1579,61.9c.4.2.7.5,1.1.8.4.4.8.8,1.2,1.3-1.1,2.6-2.2,5.1-3.3,7.7-.7-1.1-1.1-2.3-1.7-3.4.8-2.2,1.8-4.3,2.7-6.4h0Z"/><path class="cls-2" d="m30.8579,57.7c2,1.8,3.9,3.8,5.9,5.6.5.6,1,1.3,1.3,2.1,0,0,0,.1-.1.1-2.4-.3-4.7-.6-7.1-.9-.4-2-.3-4-.3-5.9.1-.3.2-.7.3-1h0Z"/><path class="cls-2" d="m31.1579,66c2.5.3,5.1.6,7.6.9.6,1.1,1.3,2.2,1.8,3.4-2.8-.3-5.5-.6-8.3-.9-.5-1.1-1-2.2-1.1-3.4h0Z"/><path class="cls-2" d="m44.2579,77.6h-.3c-.5,0-1.9.1-3.5-.3s-3.5-1.2-5-2.9h0c-.4-.4-.7-.9-.9-1.3-.5-.6-.9-1.2-1.3-1.9-.1-.1-.2-.3-.1-.4,1.2.1,2.5.3,3.7.4,1.5.1,3,.3,4.5.5.5.9,1,1.8,1.3,2.7,0,0,1.6,3.2,1.6,3.2h0Z"/><path class="cls-1" d="m108.4679,133.31c-.01.03-.01.06-.01.09v-.09h.01Z"/><path class="cls-2" d="m123.1579,141.7h-10.6c.45-.3.94-.62,1.38-1,.01,0,.02-.02.02-.02.75-.62,1.38-1.38,1.5-2.38,0-3,0-6.1.1-9.1,0-.8-.6-1.3-1-2,.4-.5.9-1.1.9-1.7v-28.3c.1-1.2-.9-2.2-1.9-2.8-2.5-1.7-5.5-2.4-8.4-2.9-4.7-.8-9.4-1.1-14.1-1.1-4.3,0-8.6.1-12.8.7-3.6.6-7.3,1.2-10.7,2.9-1.3.7-2.6,1.7-2.8,3.3-.1,1.4,0,2.9,0,4.3-2.97-.49-5.9301-.79-8.9-.7v-23.4h-.1v-12.7l21.34-21.43c.01.11.04.22.06.33.3,2.4,1.2,5,2.5,7.4.1,1.8,0,3.6,0,5.4v4c-1.7.5-3,2.1-3,3.9,0,.9.3,1.7.8,2.4.5.6,1.1,1.1,1.8,1.4.5.2,1.1.3,1.7.3,2.3,0,4.2-1.8,4.2-4.1,0-1.9-1.4-3.6-3.3-4v-5.6c1.5,1.6,3,3.2,4.8,4.5v9c-2.2.5-3.6,3.1-2.8,5.2.5,1.3,1.7,2.3,3,2.6.5.1,1.1.1,1.6,0,.6-.3,1.3-.6,1.8-1.1.8-.8,1.1-1.9,1-3,0-1.5-1.1-2.8-2.4-3.4v-8c1,.4,1.9.9,2.8,1.3,1.7.6,3.5,1,5.3,1.1,0,3.7.1,7.4.1,11.1-1.4.4-2.5,1.6-2.7,3.1-.4,2,1.3,4.1,3.4,4.3,2.2.3,4.2-1.9,3.9-4.1-.1-1.5-1.2-2.7-2.4-3.3-.1-3.7,0-7.3,0-11,.9,0,1.8,0,2.7-.2.7-.1,1.4-.2,2.1-.3,1.2-.3,2.4-.7,3.6-1.1,0,2.6.1,5.2,0,7.8-2.3.4-3.6,3.3-2.6,5.3.7,1.4,2.2,2.5,3.8,2.3,2.1-.1,3.9-2.2,3.6-4.3,0-1.6-1.2-2.8-2.6-3.3,0-2.9-.1-5.9.1-8.8.8-.5,1.6-1.1,2.4-1.7,1.1-.8,2.1-1.9,3.1-2.8.1.6,0,1.2,0,1.8v28.6c-1.7.4-2.6,2.3-2.4,3.9.2,1.8,2,3.1,3.7,3,1.5-.1,2.9-1.4,3.1-2.9.3-1.6-.7-3.3-2.2-3.9-.1-2.5,0-5-.1-7.5v-15c0-3.8-.1-7.5.1-11.3,1.3-2,2.3-4.2,2.8-6.5.3-1.7.7-3.4.7-5.1.1-4-.9-8.1-2.9-11.7-1.3-2.2-3-4.3-5-5.9-5.1-4.2-12-5.9-18.5-4.6-4.2.8-8.2,2.7-11.2,5.8-2.3,2.2-3.9,4.9-5,7.8-.96,2.5-1.56,5.1-1.59,7.79l-21.21,21.21v-17.13c.9-.34,1.89-.51,2.88-.51.95,0,1.91.15,2.8199.44.4.1.7.3,1,.5.3.2.8.1,1.1-.2.3-.4.2-1-.2-1.3s-1-.5-1.5-.7c-1.4-.4-2.9-.5-4.3-.4,1.1-1.1,2.4-2,3.5-3,1,1.1,2.5,1.8,3.9,2,1.8.3,3.6-.1,5.2-.9,1.4-.7,2.7-1.9,3.7-3.1,3.2-4,4.7-9.3,4.7-14.4,0-.4.1-1.1-.3-1.4-.4-.2-.8-.1-1.2-.1-1.2.1-2.5.1-3.7.3-3,.5-6,1.1-8.7,2.6-2.1,1.1-3.9,2.9-5,5.1-1.2,2.7-1.2,6.1.4,8.7-1.4,1.3-2.8,2.5-4.3,3.7v-13.98c.03-.0099.0699-.0099.1-.02s.06-.03.09-.04c.21-.11.5099-.2599.5099-.2599,1.1-.6,2.3-1.2,3.2-2.1,2.2-1.8,3.3-4.8,3.4-7.8.2-4.3-1.4-8.5-3.7-12-1.2-1.5-2.4-3.1-3.7-4.5-.4-.4-.9-.9-1.5-1-.6,0-.9.5-1.3.8-1.6,1.8-3.1,3.7-4.2,5.8-1.5,2.7-2.7,5.6-3,8.7-.2,2.6.1,5.2,1.4,7.5,1.24,2.38,3.56,4.03,6.2,4.7v21.22c-.1-.08-.19-.15-.29-.23-.2-.15-.4-.3-.59-.45-.1-.08-.19-.15-.28-.23-.09-.06-.17-.14-.24-.21-.59-.54-1.19-1.0699-1.79-1.6-.61-.53-1.2401-1.07-1.86-1.6-1.23-1.05-2.45-2.1-3.65-3.2l.42.36c-.18-.15-.35-.3-.52-.46,1.2-1.91,1.77-4.17,1.77-6.44,0-1.89-.4-3.78-1.17-5.46-1.5-3-4-5.4-6.9-7-3.7-2-7.8-3-11.9-3.6-1.7-.2-3.4-.3-5.1-.4-.5,0-1.1-.1-1.6.2-.7.4-.5,1.3-.5,2,0,7,2.1,14.2,6.5,19.8,1.4,1.7,3.1,3.3,5,4.3,2.2,1.1,4.7,1.6,7.2,1.2,2.1-.3,4-1.2,5.4-2.7,1.5,1.5,3.3,2.7,4.8,4.2-2-.2-4-.1-6,.5-.7.2-1.5.5-2.1.9-.5.4-.8,1.3-.3,1.8.4.4,1,.6,1.5.3.4-.3.8-.6,1.4-.7,3.3-1,7.1-.7,10,1.2.25.16.62.39.8.69v48.77l-1.9-.03v-1.63c0-1.9-.1-3.7-.2-5.5v-1.3c-.1-.9-.2-1.8-.3-2.7v-.2c-.1-.9-.3-1.8-.4-2.7l-.1-.5s-.1-1.4-.2-2.3c-.1-.5-.2-1.1-.3-1.6s-.3-1-.4-1.6c-.1-.2-.1-.4-.2-.6-.1-.3-.2-.5-.3-.8v-.2c-.0099-.04-.03-.08-.04-.11.04-.04.09-.06.14-.09,1.3-1,2.1-2.4,2.7-3.9,1-2.2,1.1-4.8.3-7.2-.4-1.4-1.1-2.7-2-3.9-1.8-2.6-4.4-4.7-7.2-6.2-2.5-1.3-5.1-2.3-7.9-2.8-1.4-.3-2.9-.6-4.3-.7-.7,0-1.3-.2-2-.1-.6.1-.6.8-.7,1.3-.6,3.2-.7,6.4-.2,9.6.5,2.8,1.3,5.5,2.7,8,1.2,2.1,2.9,3.9,4.9,5.3,1.6,1.1,3.4,2,5.4,2.4.8.2,1.6.1,2.5.1h.2c.5,0,1.1-.1,1.8-.2.31-.04.65-.11,1-.22l.6-.1v.22q0,.1.1.2c0,.1.1.6.2.7.2.7.3,1.4.5,2.2.5,2.4.9,4.8,1.1,7.2.2,1.4.3,2.9.4,4.3v.6c.1,1.6.1,3.3.1,4.9h-.1c-2.8,0-5.6.1-8.3.4-3,.3-6,.7-8.9,1.7-1.2.4-2.6,1-3.2,2.2-.7,1.1-.3,2.3-.4,3.5-1.4.4-2.8.8-4,1.6-.9.5-1.7,1.3-1.8,2.4v6.5c-3,.6-6,1.1-8.8,2.6-1.4.8-2.7,2.2-2.5,3.8v12.8c0,.6.2,1.3.6,1.8.5.7,1.1,1.4,2,1.7H5.3579c-.5,0-1.1,0-1.3.5-.4.6,0,1.6.8,1.6,3.6-.1,7.2,0,10.7,0h68.1c2.9.1,5.7,0,8.6,0h30.8c.5,0,1,0,1.3-.5.3-.4-.3-1.5-1.2-1.4Zm-40.6-77.4c.2,1.3-1.5,2.4-2.6,1.5-1-.7-.8-2.4.3-2.9,1-.5,2.1.4,2.3,1.4Zm6.6,7.7c.2,1.1-1,2.1-2.1,1.8-.8-.2-1.4-1.1-1.3-1.9.1-.6.5-1.2,1-1.5,1.2-.5,2.4.5,2.4,1.6Zm10.5,5.6c-.1.8-.7,1.3-1.4,1.5-.6,0-1.3-.4-1.5-1-.4-.8.1-1.8.9-2.1.9-.5,2.1.6,2,1.6Zm10.8-5.1c.1,1.1-1,2.1-2,1.9-.9-.2-1.6-1.2-1.3-2.2.2-.5.5-1,1.1-1.2.9-.3,2,.5,2.2,1.5Zm7.4,17.5c-.2.8-1.4,1.2-2,.6-.8-.5-.6-1.8.2-2.3,1-.4,2.2.7,1.8,1.7Zm-35.7-60.1c1.5-2.5,3.6-4.7,6.1-6.3,3-2,6.5-2.9,10.1-3.1,3.2-.1,6.5.6,9.4,2,2.5,1.1,4.6,2.9,6.4,4.9,2.8,3.1,4.4,7.3,4.8,11.4.6,6.1-1.9,12.3-6.2,16.6-2.1,2-4.7,3.5-7.5,4.3-3.4,1.1-7.1,1.1-10.6.4-3.6-.7-7-2.6-9.6-5.2-2-2-3.5-4.5-4.5-7.1-2.3-5.8-1.7-12.7,1.6-17.9Zm-21.3.7c.6-1.9,2.1-3.4,3.7-4.4,1.7-1.1,3.6-1.9,5.6-2.4,2.2-.6,4.6-.9,6.9-.9,0,3.6-.8,7.2-2.4,10.3-.8,1.7-2,3.2-3.3,4.5-1.4,1.2-3.2,2-5.1,2-1.4,0-2.8-.4-3.9-1.4.2-.3.5-.5.8-.8,1.2.7,2.7,1.1,4.1.8,1.6-.3,3.1-1.3,4.1-2.5-2.2-.4-4.5-.9-6.7-1.4-1.1.9-2.2,1.7-3.4,2.4-1.1-1.9-1.1-4.2-.4-6.2Zm-18,9.1c-.1-.1-.3-.2-.4-.2l-3.9-3.4c-.2,0-.4.1-.5.1-1.4.4-3,.7-4.5,1.1-1.6.4-3.1.7-4.6.9,1.4,1.7,3.5,3.1,5.7,3.5,1.9.4,4-.1,5.7-1.1.4.3.7.7,1.1,1.1-1.4,1.4-3.4,2-5.3,1.9-2.6,0-5.1-1-7-2.8-1.9-1.7-3.5-3.8-4.6-6.1-2.2-4.3-3.4-9.2-3.2-14.1,3.2,0,6.4.4,9.4,1.2,2.7.7,5.3,1.7,7.7,3.3,2.3,1.4,4.3,3.5,5.2,6.1.7,2.7.7,5.9-.8,8.5Zm5.52,37.76c-.03-.09-.06-.2-.12-.26v-.1c0-.1-.1-.2-.1-.3-.15-.41-.33-.79-.52-1.18q.0099-.01.02-.02c.1-.1.2-.3.3-.4,1.2-1.3,1.7-3.1,1.6-4.8-.1-2-1-3.8-2.2-5.4-1.3,2.8-2.4,5.6-3.7,8.4.3.6.5,1.2.8,1.8.3.7.7,1.4,1,2l.51,1.26c-1.59.28-4.22.58-5.31.24h-.2c-.2,0-.3-.1-.5-.1-2.6-.8-4.8-2.4-6.5-4.4-1.3-1.6-2.3-3.4-2.9-5.4-1.1-3.1-1.4-6.5-1.2-9.7.1-1.1.1-2.2.5-3.2,1.4,0,2.7.2,4.1.5,4.5.8,9,2.5,12.4,5.7,2.1,1.8,3.8,4.2,4.5,6.9.7,2.5,0,5.3-1.5,7.3v.1c-.29.38-.62.73-.98,1.06Zm.18-56.46c-1.1-2.5-.9-5.3-.3-7.8.5-1.9,1.3-3.8,2.3-5.5,1-1.8,2.2-3.5,3.7-4.9,2,2.4,4,4.8,5.2,7.7,1.2,2.9,1.9,6.1,1.2,9.2-.6,2.3-2.3,4.8-4.8,5.6v-1.8c2.7-1.3,4.1-4.6,3.4-7.5-1.4,1-2.5,2.2-3.7,3.3-.09.8-.1,1.68-.17,2.5h-1.33c-.1-.7,0-1.4-.2-2.1-1.5-1.1-3-2.3-4.5-3.3-.19,2.79,1.28,5.86,3.9,6.98v1.79c-2.03-.68-3.76-2.29-4.7-4.17Zm2.8,81.87l2.1-.03v1.86c-.7-.1-1.4-.1-2.1-.1v-1.73Zm-20.9,3.33c.4-.9,1.5-1.2,2.4-1.4,3.9-1.1,8-1.5,12-1.8,1.4-.1,2.8-.1,4.2-.1v1.6c-.7,0-1.5-.1-2.2.2-.5.2-.8.8-.6,1.4.3.4.8.6,1.2.7,2.6.3,5.3.1,7.9.1,1,0,2,0,2.9-.2.5-.1,1-.4,1.2-.9,0-.6-.5-1-1.1-1.1-.9-.2-1.9-.1-2.9-.1v-1.6h.3c.03,0,.0699,0,.1.01,3.67.2,7.23.5,10.8,1.19,1.6.3,3.2.6,4.7,1.2.6.3,1.3.7,1.2,1.5-.2.8-1.1,1.1-1.7,1.5-.3.2-.6.4-1,.6-.36.21-.71.38-1.03.56l-.05.03c-.11.0699-.22.1299-.32.21-.88.61-1.98.92-3.05,1.19h-.01c-.15.04-.29.07-.44.11-1.67.39-3.33.69-5,.89v-1.25c-.23-.41-.71-.74-1.2-.74-.42,0-.84.36-.97.74-.01.04-.01.09-.02.13v1.53h-.0099c-1.07.1-2.13.19-3.2.2v-1.4c0-.8-1-1.4-1.7-.9-.3.2-.4.6-.4.9v1.5c-1.03,0-2.24.09-3.3.1v-2.5c-.2-.5-.8-.8-1.3-.7-.4.1-.7.5-.7,1v2.1h-.1c-1.17,0-2.24,0-3.4-.09v-2.91c-.21-.5-.94-1-1.46-.7-.3701.09-.67.43-.63.8h-.01v2.7c-.9,0-1.8-.1-2.8-.2v-3c0-.6-.6-1.2-1.2-1.2-.5,0-.8.5-.8,1v3c-.9-.2-1.8-.3-2.7-.6v-3.3c-.1-1-1.6-1.3-2-.3-.2,1.1,0,2.1,0,3.2-.6-.3-1.4-.5-1.7-1.1,0-1.5,0-2.7.1-3.8Zm42.4,17.2c0,.7,0,1.5-.1,2.2-.3.4-.7.6-1.1.8-.26.12-.53.23-.8.33v-2.4c.68-.25,1.35-.56,2-.93Zm-2-1.6c.1-1.7.1-3.4.1-5.1.5-.4,1.1-.6,1.6-.9v5.1c-.6.3-1.1.6-1.7.9Zm-46-9.6c.9-.9,2.2-1.1,3.4-1.4.2.4.3.7.6.9,1.1.9,2.6,1.3,4,1.7,4.3,1.2,8.8,1.3,13.2,1.4,5.9.1,11.9-.1,17.7-1.2.69-.14,1.39-.29,2.08-.46,3.17-.63,5.59-1.67,6.72-2.93v2.69c0,.3-.3.4-.4.5-1.1.7-2.4,1.1-3.6,1.4-6.1,1.5-12.3,2.1-18.6,2.1-1.5.1-3,0-4.6,0-4-.1-8-.3-12-1-2.6-.4-5.2-.8-7.6-2-.3-.2-.7-.3-1-.6-.2-.3-.2-.8.1-1.1Zm42.4,10.6v-5.3c.5-.1,1.1-.3,1.6-.4v5.4c-.5.1-1.1.2-1.6.3Zm1.5,2.14v2.38c-.64.15-1.28.26-1.9.38v-2.4c.63-.09,1.26-.21,1.9-.36Zm-5.7-1.54c.1-1.7,0-3.5,0-5.2.7-.1,1.4-.2,2.1-.3v5.3c-.7.1-1.4.2-2.1.2Zm1.5,2.4v2.4c-.83.11-1.66.22-2.5.31v-2.47c.83-.08,1.67-.17,2.5-.24Zm-5.9-1.91v-5.16c.81-.07,1.61-.15,2.4-.23v5.2c-.81.07-1.61.14-2.4.19Zm1.3,2.35v2.49c-.79.08-1.59.14-2.4.17.1-.9.1-1.7.1-2.5.77-.03,1.54-.09,2.3-.16Zm-13.4.37c1.13.03,2.26.05,3.4.09v2.2c-1.15,0-2.28,0-3.4-.02v-2.27Zm-1.5-2.47v-5.01c.83.02,1.67.03,2.5.03v5.02c-.84,0-1.67-.02-2.5-.04Zm4.6.05v-5.05c.83-.01,1.66-.02,2.5-.04h.1v5.08c-.4.02-.8.02-1.2.02-.47,0-.93,0-1.4-.01Zm2.4,2.41h3.6v2.3h-3.6v-2.3Zm2.3-2.47v-5.12c.73-.04,1.47-.08,2.2-.12v5.14c-.74.05-1.47.08-2.2.1Zm-13.3,2.17c1.12.12,2.26.19,3.4.23v2.3c-1.12-.04-2.25-.12-3.4-.23v-2.3Zm-1.2-2.41v-5.02c1.03.09,2.07.15,3.1.19v5c-1.03-.04-2.0699-.1-3.1-.17Zm-1,2.31v2.1c-1.17-.18-2.33-.37-3.5-.61v-1.93c1.16.17,2.33.31,3.5.44Zm-3.5-2.79v-4.98c.8.1,1.6.19,2.4.26v5.01c-.8-.08-1.6-.18-2.4-.29Zm-3.1-.5099c-.13-.03-.26-.06-.4-.08v-4.93c.46.09.93.17,1.4.25v4.94c-.33-.05-.67-.12-1-.18Zm1,2.52v1.8c-.03,0-.07-.0099-.1-.02-.9-.2-1.8-.5-2.4-1.1-.3-.3-.2-.8-.2-1.2.89.2,1.79.37,2.7.52Zm-3.5-7.94v4.9c-.51-.11-1.01-.23-1.5-.38,0-1.6,0-3.2-.1-4.9.53.14,1.06.26,1.6.38Zm-5.2-1.68c.5.3,1.1.5,1.5.8v4.7c-.5-.2-1.1-.4-1.5-.8v-4.7Zm-.87,11.92c-.21-.09-.44-.11-.64-.0099-.04.02-.07.05-.11.08-.03.02-.06.03-.08.06-.05.03-.1.07-.14.11-.11.1-.21.21-.27.34v3.06c0,.11.0099.22.02.33-.01-.02-.02-.03-.02-.05v9.76h-.19c-.5-.1-1.1-.1-1.6-.2v-11.59c0-.2-.01-.39-.01-.6,0-.1.01-.2.01-.3v-.41c0-.25-.05-.48-.22-.69-.31-.3-.83-.6-1.25-.4-.42.2-.84.5-.73.9v12.72c-.44-.16-.95-.26-1.38-.42v-11.72c0-.19-.0099-.38-.0099-.58v-.11c.0099-.46.08-.92-.2-1.29-.2-.3-.71-.6-1.11-.4-.4.2-.8.5-.7.9v.79h-.01v11.7c-.6-.3-1.29-.5-1.59-1.1-.1-4.3,0-8.6,0-12.9,0-.5-.1-1,.3-1.4,1-1.1,2.5-1.5,3.9-2,1.47-.37,2.94-.73,4.49-1.1.19.33.42.64.71,1,.76.93,1.69,1.53,2.58,1.92.09.04.17.08.26.11h-.07c-.58.02-1.17.04-1.78.08-.6,0-1.3.2-1.3.6,0,.3.7.5,1.3.5,1.44-.1,2.97-.1,4.41-.19-.01.1-.1.29-.1.38-1.4.6-2.8,1.2-3.7,2.4-.22-.11-.47-.22-.73-.27.01.01.02.01.03.02-.02-.01-.04-.02-.07-.03Zm2.07,13.88c-.4301-.0099-.87-.03-1.3-.08v-2.77c.37.47.81.85,1.3,1.18v1.67Zm1.1-4.1c-.1-1.7,0-3.5-.1-5.2.5.3,1.1.6,1.7.8v5.7c-.5-.4-1.6-.5-1.6-1.3Zm1,4.11v-.6c.47.19.94.39,1.4.59-.46,0-.9301.01-1.4.01Zm4.3-1.75c-.54-.14-1.07-.29-1.6-.46v-5.9c.53.16,1.07.31,1.6.44v5.92Zm4.1.87c-.67-.11-1.34-.23-2-.38v-5.98c.66.12,1.33.22,2,.31v6.05Zm4.1.53c-.67-.07-1.33-.14-2-.22v-6.12c.67.07,1.33.13,2,.19v6.15Zm3.8.28c-.3-.0099-.6-.02-.9-.04-.27-.02-.53-.04-.8-.06v-6.19c.57.02,1.14.05,1.7.06v6.23Zm3.7.07c-.53,0-1.07,0-1.6-.01v-6.24c.53.01,1.0699.01,1.6.01v6.24Zm3.8,0c-.57.01-1.13.01-1.7.01v-6.27c.57-.0099,1.14-.02,1.7-.04v6.3Zm3.7-.01c-.53,0-1.06,0-1.6.01v-6.33c.54-.01,1.12-.04,1.6-.08v6.4Zm3.6,0c-.4-.1-.9-.1-1.5-.1v-6.2h1.5v6.3Zm3.7-.3c-.5,0-1,.1-1.6.1v-6.2c.5,0,1-.1,1.5-.2.2,2.1.1,4.2.1,6.3Zm3.5-.4c-.5.1-1,.1-1.4.2v-6.3c.5-.1.9-.2,1.4-.3v6.4Zm-6.7-7.9c-1.1.1-2.3.1-3.4.3-.6.05-1.28.1-1.82.14-.56.04-.98.06-1.08.06-4.4,0-8.7,0-13.1-.4-2.9-.4-5.9-.7-8.8-1.5-1.5-.4-3.1-.8-4.4-1.7-.3-.2-.7-.7-.2-1,.7-.5,1.6-.7,2.5-1,.8.8,1.8,1.2,2.8,1.5,1.7.6,3.4.8,5.1,1.1,4.3.8,8.8.9,13.2.8,2.5,0,4.9,0,7.4-.2,4.2-.3,8.5-.6,12.6-1.8,1.7-.5,3.6-1.1,4.8-2.6.5-.5.3-1.2.3-1.9.7.4,1.5.6,2.1,1.1.5.4.6,1.1.4,1.6-.3.8-1,1.4-1.8,1.8-2.7,1.5-5.7,2.1-8.7,2.6-2.6.6-5.2.9-7.9,1.1Zm34.4-20.8c-6.2.2-12.6.2-18.8-.9,0-2.1,0-4.2-.1-6.3,6,1.1,12.1,1,18.1.9.4,0,.8.2.8.6v5.7Zm.1,2.5v6.4c-3.5,0-7.1.1-10.6-.1-2.8-.2-5.6-.5-8.3-1.1v-6.3c6.2,1.1,12.6,1.2,18.9,1.1Zm-16.2,22c-.4.5-1,.9-1.5,1.3v-5.8c.5-.4,1-.7,1.5-1.1.1,1.9.1,3.8,0,5.6Zm-8.1,3.5c-.5.1-1,.2-1.5.2v-6.2c.5-.1,1-.2,1.5-.4,0,2.2.1,4.3,0,6.4Zm3.5-.9c-.5.1-1,.2-1.4.4v-6.1c.5-.1,1-.2,1.4-.4v6.1Zm4.8,2.3h-1.9v-.85c.69-.36,1.38-.74,2-1.25-.1.6,0,1.4-.1,2.1Zm0-18c-.5-.3-1.2-.5-1.4-1.1,2.7.4,5.4.7,8.1.8,3.1.1,6.2.2,9.3.1v6.2c-2.8.1-5.6,0-8.4,0-1.8-.1-3.6-.1-5.4-.5v-2.7c-.3-1.2-1.2-2.2-2.2-2.8Zm16.2,18.1c-1.7.2-3.5.1-5.3.1-2.9,0-5.8,0-8.7-.1-.05-1.69-.05-3.36-.03-5.03,3.14.38,5.95.54,8.23.63,2.13.04,4.03,0,5.72-.08.03-.0099.05-.0099.08-.0099v4.49Zm0-6.59c-1.71.09-3.63.13-5.8.09-2.27-.09-5.08-.25-8.22-.63.0099-.99.02-1.97.02-2.97,3.9.5,7.9.6,11.9.6.7,0,1.4,0,2.1-.1v3.01Zm3.6-11.91v6.2c-.6,0-1.1.1-1.7.1v-6.2c.6,0,1.1-.1,1.7-.1Zm-1.7-2.3v-6.3c.6,0,1.1-.1,1.7-.1v6.4h-1.7Zm1.7,20.8h-1.5v-4.63c.52-.04,1.03-.08,1.5-.13v4.76Zm.1-6.87c-.5.05-1.04.1-1.6.14v-2.97c.5,0,1.1-.1,1.6-.1v2.93Zm1.9-11.63c.5-.1,1-.2,1.5-.2v6.1c-.5,0-1,.1-1.6.1.1-2,0-4,.1-6Zm-.1-8.8c.5-.1,1-.1,1.6-.1v6.3c-.5,0-1,0-1.5.1-.1-2.1,0-4.2-.1-6.3Zm1.7,27.1h-.1c-.4,0-.9,0-1.3.1v-4.88c.07-.0099.13-.0099.2-.02.57-.05.52-.05,1.2-.16v4.96Zm0-7.05c-.65.1-.64.1-1.2.15-.07.01-.13.01-.2.02v-2.82c.4,0,.9-.1,1.3-.1h.1v2.75Zm3.5,6.65c-.5.1-1,.1-1.4.2v-5.09c.4-.06.86-.13,1.4-.2v5.09Zm0-7.19c-.54.08-1,.15-1.4.21v-2.72c.5-.1,1-.1,1.4-.2v2.71Zm0-5.21c-.5.1-1,.2-1.6.3,0-2.2,0-4.2.1-6.2.5-.1,1.1-.2,1.6-.2,0,2,0,4-.1,6.1Zm0-8.7c-.4.4-1.1.2-1.6.4v-4.5c0-.6,0-1.2.1-1.8.5-.1,1-.2,1.6-.3-.1,2,0,4.1-.1,6.2Zm3.6,20.62c-.43.09-.78.17-1.21.18h-.19c0-1.65-.06-3.36-.03-5.08.01,0,.02,0,.03-.0099.46-.06.92-.15,1.4-.28v5.19Zm0-7.22v-.09c-.48.11-.94.19-1.4.26v-2.77c.5-.1.9-.2,1.4-.3v2.81h.01c-.01.03-.01.06-.01.09Zm0-5.6c-.5.2-1,.3-1.5.4,0-2,0-4,.1-5.9.5-.1,1-.2,1.5-.3-.1,2-.1,3.9-.1,5.8Zm-1.6-8.1v-6.3c.5-.1,1-.2,1.5-.3.1,2.1.1,4.2.1,6.3-.5.1-1,.2-1.6.3Zm1.79,13.81v-.09h.01c-.01.03-.01.06-.01.09Zm-.09-32.41v9.5c-.46.09-.91.1801-1.37.27v-9.01c.01-.31.01-.61-.33-.85-.63-.4-1.8-.2-1.9.6,0,.09,0,.17-.0099.25v9.39c-.44.1-.94.26-1.3701.35v-8.93c.01-.32.01-.62-.34-.86-.66-.4-1.88-.2-1.99.6v9.4c-.42.02-.88.09-1.28.09h-.01c0-.17,0-.33.01-.5v-8.01h-.03c.02-.36.06-.71-.3-.98-.6-.4-1.71-.2-1.8101.6-.0099.12-.03.25-.04.38v8.81c-.51,0-1.01.02-1.43.1v-6.3c-.1-1.2-1.2-2.1-2.4-2.1-4.6-.1-9.2.1-13.8-.3-3.8-.4-7.7-1.1-10.9-3.3-.8-.6-1.7-1.4-1.9-2.4-.2-1.3,1-1.8,1.9-2.3.2.5.3,1,.7,1.4,1.1,1.1,2.6,1.6,4,1.9,2,.5,4.1.8,6.2,1.1.4.1.9,0,1.3-.2.1-.3.3-.6.3-.9-.1-.5-.5-1.1-1-1.1-2-.3-4-.6-6-1.1-.9-.2-1.9-.5-2.7-1-.2-.1-.4-.3-.5-.6.1-.5.7-.6,1.1-.8,1.2-.4,2.5-.5,3.7-.8,2.1-.5,4.2-.6,6.3-.8,4.7-.3,9.4-.3,14.1-.1,2.5.2,4.9.3,7.4.7,1.5.2,3.1.5,4.6,1.1.5.2.4,1-.1,1.3-.7.4-1.6.7-2.4.9-3.5.8-7.1,1.1-10.7,1.3-.7.1-1.3,1.1-.8,1.7.3.5,1,.6,1.5.5,2.1-.3,4.2-.3,6.3-.5,2.3-.3,4.7-.7,6.9-1.7.6-.3,1.3-.8,1.6-1.4.1-.4.1-.7.2-1.1.7.4,1.6.6,2.1,1.4.3.4.4.9,0,1.3-.9,1-2.3,1.5-3.6,1.8-.6.1-1.2.6-1.2,1.2Zm3.5,25.5c-.5.2-1.1.5-1.6.7v-5.7c.5-.2,1.1-.3,1.6-.5-.1,1.8,0,3.6,0,5.5Zm0-8.2c-.5.1-1.1.3-1.6.5v-6.3c.5-.2,1-.3,1.6-.5v6.3Zm0-9c-.5.2-1.1.4-1.6.7v-8c.5-.2,1.1-.4,1.6-.7-.1,2.6,0,5.3,0,8Z"/><path class="cls-2" d="m23.7579,127.75c-.02-.01-.04-.02-.07-.03.01,0,.03.01.04.01.01.01.02.01.03.02Z"/><path class="cls-2" d="m45.0879,41.66l-.11-.1-.42-.36c1.2,1.1,2.42,2.15,3.65,3.2-1.04-.91-2.09-1.81-3.12-2.7401Zm6.67,5.84c-.56-.51-1.12-1.01-1.69-1.5.6.53,1.2,1.06,1.79,1.6-.03-.03-.07-.0699-.1-.1Zm1.41,1.13l-.05-.03c-.05-.04-.1-.08-.15-.11.1.08.19.15.29.23v-.02c-.03-.03-.06-.05-.09-.07Z"/><path class="cls-2" d="m113.9579,140.68v.02h-.02c.01,0,.02-.02.02-.02Z"/><path class="cls-1" d="m108.6479,133.42v.09c0-.03,0-.06.01-.09h-.01Z"/><path class="cls-2" d="m86.5479,99.41c-.1.8-1.2,1.2-1.7.5-.4-.5,0-1.2.5-1.5.6,0,1,.5,1.2,1Z"/><path class="cls-2" d="m89.3479,99.41c.1,1-1.5,1.2-1.8.4-.2-.5,0-.9.3-1.2.6-.5,1.5,0,1.5.8Z"/><path class="cls-2" d="m92.5479,99.61c-.2.7-1.2,1-1.7.5-.5-.4-.4-1.2.1-1.5.7-.5,1.7.2,1.6,1Z"/><path class="cls-2" d="m103.5479,95.51c.1.6-.4,1-.9,1.1-.6.1-1.3,0-1.9-.1-3.6-.3-7.3-.6-10.9-.5-3.4.1-6.7.3-10.1.6-.6.1-1.3-.3-1.3-1s.7-1.1,1.3-1.1c2.8-.3,5.8-.5,8.8-.6,4.5-.2,9,.1,13.5.6.6,0,1.4.3,1.5,1Z"/><path class="cls-2" d="m57.7879,110.74c-.01.04-.01.09-.02.13v-.07c.01-.02.01-.04.02-.06Z"/><path class="cls-2" d="m53.2579,48.71v.0099c-.1-.08-.19-.15-.29-.23-.2-.15-.4-.3-.59-.45-.1-.08-.19-.15-.28-.23-.09-.06-.17-.14-.24-.21-.59-.54-1.19-1.0699-1.79-1.6-.61-.53-1.2401-1.07-1.86-1.6-1.23-1.05-2.45-2.1-3.65-3.2l.42.36.11.1,8.03,6.94.05.03.09.08Z"/><path class="cls-2" d="m17.0779,128v.69c0-.19-.0099-.38-.0099-.58v-.11h.0099Z"/><path class="cls-2" d="m22.4679,131.69c-.01-.02-.02-.03-.02-.05v-.28c0,.11.0099.22.02.33Z"/><path class="cls-1" d="m68.7779,109.59c-.11.0699-.22.1299-.32.21-.88.61-1.98.92-3.05,1.19l3.37-1.4Z"/><path class="cls-1" d="m115.8705,31.0096c-5.5647-3.2087-11.1311-6.4147-16.6917-9.6302h-.0158c-1.2575.7436-2.5279,1.4657-3.7901,2.2017-4.0007,2.3152-7.9999,4.6328-11.997,6.9536-.3388.1983-.6735.4054-1.0284.5743v19.4006c.3018.2484.6667.4071.9988.6113,4.9525,2.8711,9.9091,5.7348,14.8634,8.6027.3089.1669.5957.3728.9128.5245.1062.0516.2047-.0525.298-.088.6682-.4021,1.3475-.7849,2.021-1.178,4.8105-2.7784,9.6152-5.5667,14.4278-8.3413.0094-6.5435.0073-13.0873.0012-19.6311Zm-17.0431,28.2212c-5.25-3.0339-10.4946-6.0762-15.7452-9.1089-.0009-6.0463-.0056-12.0927.0023-18.139.2804.1364.5488.2957.8157.457,4.9775,2.8643,9.9564,5.726,14.9309,8.5956-.0006,6.0651.007,12.1302-.0038,18.1953Zm.4429-18.8738c-.0584.0393-.1267.0114-.1813-.0194-5.2068-3.0084-10.4251-5.9971-15.6322-9.0048,3.534-2.0424,7.0615-4.0963,10.5961-6.1384,1.7095-.9894,3.4149-1.9873,5.1309-2.9658,4.4149,2.5602,8.8423,5.0992,13.2592,7.6561.8286.4664,1.6453.9542,2.4739,1.4212-.3634.2399-.7468.4476-1.1246.6641-4.1602,2.4117-8.329,4.8094-12.4889,7.2217-.682.381-1.3472.7917-2.033,1.1654Zm15.8704,9.8534c-5.1919,3.0025-10.3837,6.0053-15.5741,9.0104-.0015-6.0613-.0021-12.1223.0003-18.1833,5.193-2.9919,10.3776-5.9988,15.5698-8.9922.0103,6.0548.0023,12.11.0041,18.1651Z"/><path class="cls-1" d="m97.3074,41.9122c-4.2403-2.4507-8.4818-4.8994-12.7265-7.3422-.0091,4.8915-.0021,9.7833-.0038,14.6748.3444.2185.704.4112,1.0569.6148,3.8886,2.2448,7.7758,4.4932,11.6685,6.7304.0109-4.8927.0015-9.7854.005-14.6777Zm-9.7947-4.7903c.4834.2399.9339.54,1.4086.7964,1.603.9287,3.211,1.8491,4.8126,2.7804-2.0747,1.1968-4.1491,2.3935-6.2229,3.5918-.0003-2.3894-.0038-4.7792.0018-7.1686Zm-.0015,8.0204c2.3155-1.3464,4.6378-2.6813,6.9592-4.0171.5796.3271,1.1592.6541,1.7262,1.0026-2.8954,1.6687-5.7932,3.3331-8.6866,5.005-.0003-.6638-.0015-1.327.0012-1.9905Zm-2.197,3.2322c-.0091-4.1784-.0021-8.3572-.0038-12.5356.4875.2775.9741.5564,1.4611.8345.0114,3.6223.0035,7.2446.0041,10.8669-.496.2622-.9665.5693-1.4614.8342Zm11.2265,6.9257c-3.5545-2.036-7.0938-4.0992-10.6445-6.1417-.0727-.0434-.144-.0889-.2144-.1355.4156-.2625.8492-.4948,1.2733-.743.0725-.027.1546-.1135.2361-.0654,3.1175,1.8007,6.2355,3.6012,9.3521,5.4039.0012.5603.0053,1.1208-.0026,1.6816Zm-6.1604-6.0924c2.0577-1.1759,4.1086-2.363,6.1628-3.5448.0026,2.3686.0021,4.7372.0006,7.1058-2.055-1.1862-4.1095-2.3727-6.1634-3.561Zm6.1637-4.3946c-2.1398,1.2358-4.2814,2.4675-6.4233,3.6991-.1607.0921-.3133.205-.4937.2564-.5825-.3294-1.1633-.665-1.7421-1.0026,2.8813-1.6679,5.7686-3.3266,8.6552-4.9854.0085.6773.0044,1.3549.0038,2.0325Z"/><path class="cls-1" d="m113.641,34.6568c-4.2394,2.4525-8.4874,4.8906-12.7245,7.3472-.0006,4.8912-.0065,9.7824.0029,14.6736.2179-.1141.4312-.2358.6444-.3579,4.0241-2.3346,8.0585-4.6513,12.0798-6.9905.0012-4.8909.0065-9.7815-.0026-14.6725Zm-8.1322,5.5418c1.7248-.9914,3.4428-1.9943,5.171-2.9796.012,1.711-.0088,3.4222.01,5.1332.0349.6697.0252,1.3405.0161,2.011-2.0905-1.1601-4.1459-2.3824-6.2294-3.5557.3315-.2235.687-.408,1.0322-.6089Zm-3.424,1.9741c.5207-.3021,1.0422-.6028,1.5652-.9005.0859-.0607.1757.0229.257.054,2.2683,1.3,4.5427,2.5904,6.8049,3.9012.0006.6653.0012,1.3308-.0003,1.9961-2.8919-1.6435-5.7759-3.3011-8.666-4.9472-.0845-.0241.0056-.0769.0393-.1035Zm-.4362.7357c2.8954,1.6561,5.7947,3.3064,8.6883,4.966-.5858.3323-1.1704.6676-1.7473,1.0149-2.3094-1.3273-4.624-2.6458-6.9363-3.9675-.0097-.6711-.0047-1.3423-.0047-2.0134Zm6.1936,6.4024c-2.0624,1.195-4.125,2.3903-6.193,3.5759-.0003-2.3704-.0041-4.7407.0021-7.1108.9932.5482,1.972,1.1226,2.9594,1.6816,1.0759.6195,2.1601,1.2255,3.2316,1.8532Zm-6.1898,6.1029c-.0085-.5597-.0041-1.119-.0032-1.6784,2.8986-1.6649,5.7891-3.3436,8.6848-5.0132.2285-.1247.4447-.2716.6811-.3813.1006-.0686.198.0434.2869.0783.4013.247.8272.4538,1.2182.7178-3.6238,2.0902-7.2413,4.191-10.8677,6.2769Zm11.2567-6.9204c-.496-.2631-.9683-.5688-1.4622-.8354-.0038-2.0521-.0003-4.1042-.0015-6.1563-.0525-1.5725-.0223-3.1459-.0282-4.7187.496-.2622.9665-.5696,1.4614-.8342.01,2.1542.0006,4.3081.0044,6.4623-.0009.3816.034.7621.0302,1.144-.0047,1.6461.0035,3.2923-.0041,4.9384Z"/><path class="cls-1" d="m111.6634,31.1941c-.061-.0355-.122-.0707-.183-.1062-.0666-.0384-.1335-.0771-.2003-.1159-.1387-.0804-.2775-.1605-.4162-.2405-.0355-.0208-.0713-.0414-.1068-.0619-.0725-.0419-.1446-.0839-.2171-.1255-.1109-.0642-.222-.1285-.3329-.1924-.0757-.044-.1511-.0877-.2267-.1311-.0381-.0223-.0766-.0443-.1147-.0663-.0689-.0399-.1376-.0798-.2062-.1194-.0475-.0276-.095-.0549-.1423-.0821-.3191-.1848-.6386-.3693-.958-.5538-.0815-.0472-.1631-.0945-.2446-.1414-.0821-.0475-.164-.095-.2461-.1423-.0824-.0478-.1646-.0953-.247-.1426-1.4109-.8154-2.8218-1.63-4.233-2.4446-.0725-.0419-.1449-.0839-.2174-.1258-.0361-.0205-.0722-.0414-.1082-.0625-.1062-.061-.2124-.1223-.3186-.1839-.017-.0097-.034-.0194-.051-.0293-.0857-.0493-.1713-.0989-.257-.1484-.0663-.0381-.1326-.0766-.1989-.115-.1273-.073-.2543-.1467-.3816-.2203-.0616-.0355-.1223-.0707-.1819-.105-.3722-.2147-.7445-.4294-1.1167-.6447-.0208-.0117-.0417-.0238-.0625-.0361-.0299-.017-.0595-.0343-.0895-.0516-.0185-.0106-.037-.0211-.0554-.032-.0557-.032-.1118-.0642-.1675-.0965l-1.0642-.5919-.1103-.0613-.0408-.0226-.0686.0375-.0639.0352-1.0965.6031c-3.7082,2.1416-7.4185,4.2802-11.127,6.4224-.0012.1062-.0035.3188-.005.425,4.1227,2.3692,8.2345,4.7569,12.3569,7.1261,4.2306-2.4528,8.4754-4.8812,12.7025-7.3396-.0675-.039-.1346-.078-.2021-.1167Zm-15.3539,4.9692c-1.1586-.6832-2.3314-1.3414-3.4906-2.0231-.8952-.5048-1.7776-1.0319-2.6743-1.5341,2.0495-1.2,4.1139-2.3748,6.1642-3.5733.0018,2.3768.0009,4.7536.0006,7.1305Zm2.4895,1.4174c-.599-.3018-1.1572-.6767-1.7512-.9879-.0085-2.6619-.0067-5.3239-.0009-7.9858.5858-.3356,1.1718-.6714,1.7553-1.0114-.0006,3.3284.0059,6.6567-.0032,9.9851Zm.0026-10.8366c-3.1245,1.8177-6.261,3.6152-9.385,5.4336-.4963-.2731-.9768-.5732-1.4725-.8471,3.6185-2.0876,7.2355-4.1784,10.8534-6.2675.0103.5602.0062,1.1208.0041,1.681Zm2.4616,9.8472c-.5758.3268-1.1463.6629-1.723.9882-.0067-3.3213-.0053-6.6427-.0009-9.964.5729.3329,1.1513.6562,1.7221.9926.0106,2.6611.0067,5.3221.0018,7.9832Zm3.6408-2.1014c-.9694.5473-1.9254,1.1182-2.8972,1.6611-.0117-2.3671-.0094-4.7346-.0012-7.1014.3681.1836.7113.413,1.0736.6084,1.696.98,3.3917,1.9615,5.0892,2.9391-1.0818.6415-2.1803,1.2548-3.2644,1.8928Zm4.1286-2.3806c-.0537.0217-.115.0757-.1731.0405-3.1066-1.7928-6.2106-3.5915-9.3187-5.3825-.007-.5647-.0062-1.129-.0035-1.6937,3.6091,2.0867,7.2223,4.1664,10.8287,6.2575-.445.2587-.8873.5218-1.3335.7782Z"/></svg>