<?xml version="1.0" encoding="UTF-8" standalone="no" ?>
<!DOCTYPE svg PUBLIC "-//W3C//DTD SVG 1.1//EN" "http://www.w3.org/Graphics/SVG/1.1/DTD/svg11.dtd">
<svg xmlns="http://www.w3.org/2000/svg" xmlns:xlink="http://www.w3.org/1999/xlink" version="1.1" width="50" height="50" viewBox="0 0 50 50" xml:space="preserve">
<desc>Created with Fabric.js 5.2.4</desc>
<defs>
</defs>
<g transform="matrix(1 0 0 1 25 25)" id="51b7b0b2-d657-4cda-b3ec-ebde38b9eedd"  >
<rect style="stroke: none; stroke-width: 1; stroke-dasharray: none; stroke-linecap: butt; stroke-dashoffset: 0; stroke-linejoin: miter; stroke-miterlimit: 4; fill: rgb(255,255,255); fill-rule: nonzero; opacity: 1; visibility: hidden;" vector-effect="non-scaling-stroke"  x="-25" y="-25" rx="0" ry="0" width="50" height="50" />
</g>
<g transform="matrix(Infinity NaN NaN Infinity 0 0)" id="b736a828-0089-4af4-8895-3fe0744aff9e"  >
</g>
<g transform="matrix(0.05 0 0 0.05 25 25)"  >
<g style="" vector-effect="non-scaling-stroke"   >
		<g transform="matrix(1 0 0 1 62.52 -260.29)"  >
<path style="stroke: none; stroke-width: 0; stroke-dasharray: none; stroke-linecap: butt; stroke-dashoffset: 0; stroke-linejoin: miter; stroke-miterlimit: 4; fill: rgb(0,0,0); fill-rule: nonzero; opacity: 1;" vector-effect="non-scaling-stroke"  transform=" translate(-492.8, -227.31)" d="M 567.21 325.01 C 560.4200000000001 287.71 543.9200000000001 252.69 522.19 221.8 C 508.53000000000003 201.70000000000002 491.52000000000004 184.18 477.7900000000001 164.12 C 461.8300000000001 142.18 447.5800000000001 117.87 443.4200000000001 90.65 C 440.32000000000005 64.85000000000001 442.88000000000005 37.7 454.8500000000001 14.330000000000013 C 458.8300000000001 6.910000000000013 450.3500000000001 -2.159999999999986 442.6500000000001 0.4500000000000117 C 435.24000000000007 3.0400000000000116 431.93000000000006 10.940000000000012 428.5800000000001 17.390000000000015 C 417.1700000000001 39.87000000000002 414.7400000000001 65.85000000000002 417.3100000000001 90.64000000000001 C 420.3900000000001 117.28000000000002 431.2700000000001 142.42000000000002 445.85000000000014 164.71 C 462.7500000000001 190.45000000000002 482.64000000000016 214 501.2600000000001 238.47000000000003 C 514.7800000000001 258.13000000000005 526.9200000000001 279.07000000000005 534.2100000000002 301.91 C 542.0400000000002 324.57000000000005 545.7600000000001 348.82000000000005 542.9700000000001 372.73 C 543.0900000000001 374.86 541.7400000000001 377.53000000000003 543.3000000000002 379.35 L 544.1300000000002 380.18 C 543.6800000000002 380.14 542.7900000000002 380.05 542.3600000000002 380.01 C 541.6900000000003 382.90999999999997 541.1800000000003 385.86 540.8500000000003 388.84 C 541.3500000000003 388.95 542.3600000000002 389.13 542.8600000000002 389.21999999999997 C 542.2400000000002 389.46999999999997 541.0100000000002 389.96 540.3900000000002 390.21 C 538.6600000000002 395.78999999999996 536.9200000000002 401.38 534.7300000000002 406.79999999999995 C 535.3300000000003 407.09 536.5300000000002 407.65999999999997 537.1400000000002 407.93999999999994 C 536.4300000000002 407.80999999999995 535.0100000000002 407.53999999999996 534.2900000000002 407.40999999999997 C 533.4700000000001 410.08 532.4400000000002 412.7 531.5400000000002 415.35999999999996 C 529.0700000000002 419.40999999999997 527.3100000000002 423.91999999999996 524.2100000000002 427.55999999999995 C 522.4600000000002 430.5899999999999 521.0600000000002 433.99999999999994 517.9900000000001 435.9599999999999 C 519.6400000000001 437.2799999999999 520.8400000000001 439.4799999999999 523.1900000000002 439.6499999999999 L 522.3700000000001 441.9299999999999 C 523.8800000000001 440.0099999999999 525.8900000000001 438.6899999999999 528.4700000000001 439.3199999999999 L 527.2400000000001 436.82999999999987 L 525.7200000000001 438.91999999999985 L 524.4000000000001 437.7599999999998 C 522.8000000000001 438.7099999999998 519.9900000000001 439.4499999999998 521.07 436.5199999999998 C 522.6600000000001 435.5399999999998 524.35 434.74999999999983 525.94 433.74999999999983 C 524.7 434.15999999999985 522.2 434.97999999999985 520.95 435.3899999999998 C 521.74 433.99999999999983 522.5600000000001 432.6399999999998 523.4000000000001 431.2899999999998 C 525.0500000000001 431.43999999999977 526.7300000000001 431.5099999999998 528.4200000000001 431.62999999999977 C 528.96 431.0999999999998 530.0300000000001 430.02999999999975 530.58 429.4899999999998 L 531.0300000000001 433.32999999999976 L 528.8600000000001 432.66999999999973 C 528.8300000000002 433.1299999999997 528.7900000000001 434.0499999999997 528.7700000000001 434.4999999999997 C 529.7200000000001 434.3899999999997 531.6300000000001 434.16999999999973 532.58 434.0599999999997 C 532.4300000000001 434.8099999999997 532.14 436.34999999999974 532 437.09999999999974 C 530.95 436.97999999999973 528.88 436.7399999999997 527.84 436.6199999999997 C 529.2 438.34999999999974 530.47 440.1499999999997 531.6800000000001 442.02999999999975 C 530.0500000000001 442.0599999999997 526.7800000000001 442.10999999999973 525.1600000000001 442.13999999999976 C 526.3900000000001 442.7399999999998 527.6300000000001 443.32999999999976 528.8800000000001 443.93999999999977 C 529.4900000000001 444.64999999999975 530.69 446.1099999999998 531.3000000000001 446.83999999999975 C 530.3100000000001 448.52999999999975 530.9300000000001 450.39999999999975 531.2700000000001 452.19999999999976 L 529.2200000000001 450.47999999999973 C 529.2300000000001 451.5099999999997 529.2500000000001 453.57999999999976 529.2600000000001 454.6199999999997 C 530.2700000000001 453.5099999999997 531.2800000000001 452.41999999999973 532.3600000000001 451.3899999999997 L 531.8200000000002 450.1299999999997 C 533.2900000000002 448.8999999999997 537.5900000000001 448.8299999999997 535.6600000000002 445.9099999999997 L 537.6100000000002 446.0699999999997 C 555.4600000000003 425.8399999999997 566.6200000000002 399.6299999999997 568.4300000000003 372.6499999999997 C 569.5800000000003 356.79999999999967 569.7300000000002 340.73999999999967 567.2400000000002 324.9999999999997 L 567.2400000000002 324.9999999999997 Z M 531.88 431.68 C 530.45 429.22 535.43 428.09000000000003 535.76 430.83 C 534.83 432.10999999999996 533.54 432.4 531.88 431.68 Z M 533.76 447.72 C 531.85 447.67 531.43 446.81 532.5 445.14000000000004 C 534.39 445.26000000000005 534.82 446.11000000000007 533.76 447.72 Z M 538.1899999999999 438.81 C 537.0899999999999 439.34 534.8199999999999 440.6 534.3 438.74 C 534.52 436.36 537.75 436.66 539.4699999999999 436.82 C 541.6099999999999 437.42 539.1099999999999 438.71 538.1899999999999 438.8 Z M 536.68 426.08 C 536.9599999999999 427.46999999999997 537.53 430.26 537.8 431.65 C 536.4399999999999 430.41999999999996 535.79 428.85999999999996 535.8499999999999 426.97999999999996 C 534.1999999999999 427.47999999999996 532.55 428.06999999999994 531.05 428.90999999999997 C 529.74 428.74999999999994 527.4399999999999 430.28999999999996 527.12 428.21999999999997 L 527.28 427.15999999999997 L 527.6999999999999 426.09 L 532.1099999999999 428.07 C 530.8499999999999 425.87 529.4099999999999 423.81 528.1299999999999 421.65 C 528.9799999999999 421.96999999999997 530.6699999999998 422.62 531.5299999999999 422.92999999999995 C 531.7199999999999 422.0799999999999 532.0999999999999 420.38999999999993 532.2799999999999 419.53999999999996 C 532.3299999999998 420.31999999999994 532.4499999999998 421.86999999999995 532.4999999999999 422.64 C 533.3099999999998 422.49 534.9099999999999 422.19 535.6999999999999 422.03 L 535.9599999999999 423.98999999999995 L 533.4999999999999 422.96 C 533.5099999999999 423.94 533.5399999999998 425.88 533.5499999999998 426.85999999999996 C 535.5299999999999 425.13999999999993 538.1799999999998 425.06999999999994 540.5999999999998 424.56999999999994 L 541.8799999999998 426.2199999999999 C 540.5699999999998 426.1799999999999 537.9599999999998 426.0999999999999 536.6499999999997 426.0599999999999 L 536.6499999999997 426.0599999999999 Z" stroke-linecap="round" />
</g>
		<g transform="matrix(1 0 0 1 132.88 -302.64)"  >
<path style="stroke: none; stroke-width: 0; stroke-dasharray: none; stroke-linecap: butt; stroke-dashoffset: 0; stroke-linejoin: miter; stroke-miterlimit: 4; fill: rgb(0,0,0); fill-rule: nonzero; opacity: 1;" vector-effect="non-scaling-stroke"  transform=" translate(-563.16, -184.96)" d="M 608.17 244.21 C 606.53 243.63 604.74 243.31 603.49 242.03 C 604.58 242.45 606.76 243.3 607.84 243.72 C 604.64 229.93 599.49 216.62 592.52 204.31 C 581.56 183.26 565.74 165.26 554.29 144.48000000000002 C 545.4599999999999 129.22000000000003 540.24 112.03000000000002 538.17 94.56000000000002 C 537.81 89.24000000000001 533.2099999999999 84.38000000000002 527.66 85.23000000000002 C 521.39 85.53000000000002 515.9599999999999 91.12000000000002 515.98 97.39000000000001 C 515.32 112.18 518.34 127.03000000000002 523.6 140.82000000000002 C 536.77 175.89000000000001 566.1700000000001 201.93 579.4300000000001 236.95000000000002 C 583.1700000000001 246.82000000000002 587.48 256.79 587.7800000000001 267.52000000000004 L 589.09 267.32000000000005 C 588.9300000000001 270.36000000000007 588.87 273.45000000000005 589.51 276.45000000000005 C 590.97 277.16 592.3 278.09000000000003 593.51 279.20000000000005 L 590.53 279.74000000000007 L 590.3299999999999 281.99000000000007 C 591.3899999999999 281.12000000000006 593.52 279.36000000000007 594.5899999999999 278.4700000000001 C 594.54 280.0400000000001 594.43 283.1900000000001 594.3899999999999 284.7800000000001 C 595.2499999999999 282.9800000000001 595.2799999999999 280.9800000000001 595.0599999999998 279.05000000000007 C 597.8399999999998 279.25000000000006 600.3399999999998 277.86000000000007 602.9699999999998 277.20000000000005 C 602.1199999999998 279.57000000000005 601.1999999999998 281.94000000000005 600.4599999999998 284.35 C 601.9799999999998 282.26000000000005 602.0899999999998 278.28000000000003 605.5899999999998 279.04 C 605.4599999999998 278.82 605.1699999999998 278.37 605.0199999999998 278.14000000000004 L 602.6399999999998 278.95000000000005 L 604.0199999999998 276.30000000000007 C 600.6299999999998 277.31000000000006 597.2399999999998 278.4600000000001 593.6799999999997 278.44000000000005 C 593.8799999999998 276.65000000000003 594.4899999999997 275.03000000000003 595.4899999999997 273.53000000000003 C 594.8499999999997 270.39000000000004 596.2699999999996 267.47 598.2399999999997 265.06 C 598.9799999999997 267.12 596.3099999999997 271.95 600.1099999999997 272.15 C 599.7099999999997 271.29999999999995 598.9299999999997 269.58 598.5399999999996 268.73999999999995 C 599.5699999999996 268.81999999999994 601.6099999999997 268.97999999999996 602.6299999999997 269.05999999999995 C 601.6499999999996 268.30999999999995 599.7099999999997 266.79999999999995 598.7399999999997 266.03999999999996 C 599.7199999999997 266.15 601.6799999999997 266.36999999999995 602.6599999999996 266.48999999999995 C 602.2999999999996 265.71999999999997 601.5599999999996 264.18999999999994 601.1899999999996 263.41999999999996 L 603.7799999999996 265.41999999999996 C 603.4599999999996 262.66999999999996 603.5399999999996 259.9 603.7399999999997 257.15 C 606.2799999999996 259.35999999999996 603.5899999999997 262.96 605.6599999999996 265.5 L 606.5699999999996 261.83 C 607.9599999999996 263.56 609.0699999999996 265.5 610.2499999999995 267.4 C 610.9799999999996 259.57 609.4199999999995 251.85999999999999 608.1599999999995 244.18999999999997 L 608.1599999999995 244.18999999999997 Z M 590.27 263.04 C 591.24 261.21000000000004 594.52 262.91 592.64 264.51000000000005 C 591.53 265.89000000000004 588.52 264.76000000000005 590.27 263.04 Z M 591.62 273.81 L 592.18 272.72 C 595.4899999999999 271.66 593.28 276.40000000000003 591.62 273.81 Z M 599.59 250.32 C 597.6800000000001 251.13 597.13 250.57999999999998 597.9200000000001 248.70999999999998 C 599.73 247.82 600.2900000000001 248.34999999999997 599.59 250.32 Z M 608.73 261.90999999999997 C 608.23 261.57 607.22 260.85999999999996 606.72 260.52 C 606.5600000000001 255.04999999999998 610.97 258.46 608.73 261.90999999999997 Z" stroke-linecap="round" />
</g>
		<g transform="matrix(1 0 0 1 -57.79 -257.64)"  >
<path style="stroke: none; stroke-width: 0; stroke-dasharray: none; stroke-linecap: butt; stroke-dashoffset: 0; stroke-linejoin: miter; stroke-miterlimit: 4; fill: rgb(0,0,0); fill-rule: nonzero; opacity: 1;" vector-effect="non-scaling-stroke"  transform=" translate(-372.49, -229.96)" d="M 370.44 137.94 C 375.16 135.27 381.98 135.66 385.23 140.44 C 400.75 162.43 406.54 190.01 405.94 216.6 C 406.26 239.22 400.57 261.8 389.98 281.76 C 381.44 296.73 370.55 310.49 357.21000000000004 321.46 C 350.54 326.77 339.12000000000006 321.7 339.00000000000006 313.06 C 338.84000000000003 305.49 345.5400000000001 300.67 349.9800000000001 295.46 C 378.5800000000001 263.92999999999995 387.5400000000001 217.07999999999998 375.0400000000001 176.70999999999998 C 372.4200000000001 167.24999999999997 368.3300000000001 158.28999999999996 365.2100000000001 149.01 C 363.5200000000001 144.64 366.4100000000001 139.79 370.4200000000001 137.95 L 370.4200000000001 137.95 Z" stroke-linecap="round" />
</g>
		<g transform="matrix(1 0 0 1 1.4 -11.55)"  >
<path style="stroke: none; stroke-width: 0; stroke-dasharray: none; stroke-linecap: butt; stroke-dashoffset: 0; stroke-linejoin: miter; stroke-miterlimit: 4; fill: rgb(0,0,0); fill-rule: nonzero; opacity: 1;" vector-effect="non-scaling-stroke"  transform=" translate(-431.68, -476.05)" d="M 438.55 457.46 C 433.57 461.15 428.29 464.46 422.74 467.28999999999996 C 416.73 470.59 408.77 472.71999999999997 406.23 479.84999999999997 C 403.28000000000003 487.97999999999996 412.16 496.76 420.27000000000004 494.16999999999996 C 433.48 489.71 446.45000000000005 480.56999999999994 457.71000000000004 472.36999999999995 C 451.20000000000005 466.92999999999995 443.74 464.25999999999993 438.56000000000006 457.4599999999999 L 438.56000000000006 457.4599999999999 Z" stroke-linecap="round" />
</g>
		<g transform="matrix(1 0 0 1 168.21 -221.53)"  >
<path style="stroke: none; stroke-width: 0; stroke-dasharray: none; stroke-linecap: butt; stroke-dashoffset: 0; stroke-linejoin: miter; stroke-miterlimit: 4; fill: rgb(0,0,0); fill-rule: nonzero; opacity: 1;" vector-effect="non-scaling-stroke"  transform=" translate(-598.49, -266.07)" d="M 585.37 250.97 C 586.68 257.03 587.5 263.2 587.79 269.44 C 588.31 276.27 586.9599999999999 284.41 592.41 289.65999999999997 C 598.5899999999999 295.71 610.26 291.24999999999994 611.25 282.78 C 612.64 268.90999999999997 609.66 253.31999999999996 606.86 239.67999999999998 C 599.21 243.35999999999999 593.71 249.05999999999997 585.37 250.96999999999997 L 585.37 250.96999999999997 Z" stroke-linecap="round" />
</g>
		<g transform="matrix(1 0 0 1 -83.42 -48.17)"  >
<path style="stroke: none; stroke-width: 0; stroke-dasharray: none; stroke-linecap: butt; stroke-dashoffset: 0; stroke-linejoin: miter; stroke-miterlimit: 4; fill: rgb(0,0,0); fill-rule: nonzero; opacity: 1;" vector-effect="non-scaling-stroke"  transform=" translate(-346.86, -439.43)" d="M 339.76 420.84 C 344.74 424.53 350.02 427.84 355.57 430.66999999999996 C 361.58 433.96999999999997 369.54 436.09999999999997 372.08 443.22999999999996 C 375.03 451.35999999999996 366.15 460.14 358.03999999999996 457.54999999999995 C 344.83 453.09 332.33 442.30999999999995 321.06999999999994 434.10999999999996 C 327.5799999999999 428.66999999999996 334.5799999999999 427.63999999999993 339.75999999999993 420.84 L 339.75999999999993 420.84 Z" stroke-linecap="round" />
</g>
		<g transform="matrix(1 0 0 1 100.79 -49.39)"  >
<path style="stroke: none; stroke-width: 0; stroke-dasharray: none; stroke-linecap: butt; stroke-dashoffset: 0; stroke-linejoin: miter; stroke-miterlimit: 4; fill: rgb(0,0,0); fill-rule: nonzero; opacity: 1;" vector-effect="non-scaling-stroke"  transform=" translate(-531.07, -438.21)" d="M 531.17 416.69 C 527.87 421.93 524.16 426.93 520 431.59 C 515.59 436.84 508.95 441.71 509.18 449.28 C 509.38 457.91999999999996 520.84 462.88 527.47 457.52 C 538.15 448.57 545.44 436.06 552.97 424.33 C 544.9200000000001 421.62 538.48 421.13 531.19 416.66999999999996 L 531.1800000000001 416.66999999999996 Z" stroke-linecap="round" />
</g>
		<g transform="matrix(1 0 0 1 -113.02 -157.93)"  >
<path style="stroke: none; stroke-width: 0; stroke-dasharray: none; stroke-linecap: butt; stroke-dashoffset: 0; stroke-linejoin: miter; stroke-miterlimit: 4; fill: rgb(0,0,0); fill-rule: nonzero; opacity: 1;" vector-effect="non-scaling-stroke"  transform=" translate(-317.26, -329.66)" d="M 351.09 428.33 C 339.88 419.78999999999996 330.62 408.91999999999996 323.21999999999997 396.97999999999996 C 313.14 381.30999999999995 305.53999999999996 363.53 304.18999999999994 344.78999999999996 C 301.78999999999996 321.27 304.43999999999994 296.65999999999997 315.31999999999994 275.41999999999996 C 322.81999999999994 260.84 332.5199999999999 247.29999999999995 344.41999999999996 235.98999999999995 C 347.78999999999996 232.86999999999995 353.09 230.95999999999995 353.96999999999997 225.90999999999994 C 356.41999999999996 216.90999999999994 345.85999999999996 208.26999999999992 337.48999999999995 212.18999999999994 C 326.73999999999995 219.82999999999993 317.55999999999995 229.41999999999993 308.94999999999993 239.32999999999993 C 296.7099999999999 254.33999999999992 288.4799999999999 272.2299999999999 282.54999999999995 290.55999999999995 C 275.84999999999997 316.49999999999994 275.59999999999997 344.17999999999995 281.94999999999993 370.2099999999999 C 288.85999999999996 395.7399999999999 304.0899999999999 418.69999999999993 323.53999999999996 436.43999999999994 C 329.06999999999994 440.4599999999999 334.10999999999996 445.47999999999996 340.52 448.10999999999996 L 340.39 447.46999999999997 C 339.7 445.95 338.33 442.9 337.64 441.38 L 340.96999999999997 446.09 C 342.08 446.46 344.29999999999995 447.19 345.4 447.54999999999995 C 345.03 446.81999999999994 344.28 445.34999999999997 343.89 444.60999999999996 L 344.55 440.67999999999995 C 343.69 441.74999999999994 341.94 443.9 341.08 444.96999999999997 L 339.51 442.07 L 342.61 442.68 C 341.91 441.45 341.21000000000004 440.23 340.51 439.03000000000003 L 343.99 440.13000000000005 C 343.32 438.61000000000007 341.98 435.55000000000007 341.3 434.03000000000003 C 342.21000000000004 434.86 344.05 436.54 344.98 437.39000000000004 C 345.56 436.73 346.75 435.41 347.35 434.74000000000007 C 347.03000000000003 431.0300000000001 344.43 433.0900000000001 342.37 434.12000000000006 L 342.79 431.49000000000007 L 340.87 431.3400000000001 L 341.25 434.05000000000007 L 339.37 433.7200000000001 C 339.81 434.9200000000001 340.24 436.1400000000001 340.68 437.37000000000006 C 338.63 437.08000000000004 336.58 436.75000000000006 334.55 436.38000000000005 C 335.69 436.27000000000004 337.96000000000004 436.05000000000007 339.1 435.94000000000005 L 339.05 432.21000000000004 L 335.72 433.22 C 335.63000000000005 432.73 335.42 431.76000000000005 335.32000000000005 431.27000000000004 C 336.68000000000006 431.48 339.44000000000005 431.91 340.80000000000007 432.1 C 340.75000000000006 430.17 339.9800000000001 428.75 338.4700000000001 427.87 L 338.8800000000001 426.19 C 336.6400000000001 420.61 339.8600000000001 425.81 341.1200000000001 426.61 C 342.72000000000014 428.05 346.2700000000001 428.45 343.9900000000001 431.81 C 344.5500000000001 431.25 345.66000000000014 430.17 346.23000000000013 429.61 L 346.6900000000001 428.51 L 347.3800000000001 427.36 C 348.3200000000001 429.23 349.2700000000001 431.18 351.7600000000001 430.3 C 353.3300000000001 432.75 354.8700000000001 435.08 356.4400000000001 437.58 C 359.0100000000001 432.10999999999996 354.1200000000001 430.53999999999996 351.0700000000001 428.33 L 351.0700000000001 428.33 Z M 332.95 433.47999999999996 C 331.26 432.77 331.28 431.87999999999994 333.02 430.83 C 334.75 431.59999999999997 334.74 432.46999999999997 332.95 433.47999999999996 Z" stroke-linecap="round" />
</g>
		<g transform="matrix(1 0 0 1 27.95 -89.29)"  >
<path style="stroke: none; stroke-width: 0; stroke-dasharray: none; stroke-linecap: butt; stroke-dashoffset: 0; stroke-linejoin: miter; stroke-miterlimit: 4; fill: rgb(0,0,0); fill-rule: nonzero; opacity: 1;" vector-effect="non-scaling-stroke"  transform=" translate(-458.23, -398.31)" d="M 493.52 308.43 C 489.41999999999996 300.54 476.18 302.24 473.64 310.53000000000003 C 472.25 316.04 475.18 321.26000000000005 476.31 326.53000000000003 C 484.36 357.36 483.02 391.76000000000005 467.44 420.1 C 457.58 440.25 441.09 456.61 422.17 468.39000000000004 C 422.77000000000004 468.88000000000005 423.93 469.87000000000006 424.51 470.37000000000006 C 422.68 470.70000000000005 418.96999999999997 467.80000000000007 419.15999999999997 471.5300000000001 C 418.58 471.36000000000007 417.42999999999995 471.0300000000001 416.84 470.86000000000007 L 416.59999999999997 472.14000000000004 C 414.10999999999996 472.1 411.96999999999997 472.79 413.28999999999996 475.71000000000004 C 412.47999999999996 475.62000000000006 410.86999999999995 475.42 410.05999999999995 475.33000000000004 C 410.90999999999997 475.73 412.59999999999997 476.51000000000005 413.44999999999993 476.90000000000003 C 414.0299999999999 475.78000000000003 414.60999999999996 474.65000000000003 415.2099999999999 473.54 C 417.2999999999999 474.04 417.9199999999999 476.76000000000005 419.3499999999999 478.16 C 421.2999999999999 477.92 423.2399999999999 477.70000000000005 425.1899999999999 477.49 C 425.9399999999999 478.63 426.6599999999999 479.78000000000003 427.3499999999999 480.97 L 427.38999999999993 482.28000000000003 L 429.9699999999999 481.3 C 429.3599999999999 482.58 428.68999999999994 483.81 427.9299999999999 485.03000000000003 L 430.6999999999999 484.88000000000005 C 429.9499999999999 485.65000000000003 428.4399999999999 487.1700000000001 427.6799999999999 487.94000000000005 C 427.6099999999999 486.58000000000004 427.5099999999999 483.86000000000007 427.4399999999999 482.50000000000006 C 425.8099999999999 483.55000000000007 424.8099999999999 485.05000000000007 424.39999999999986 487.03000000000003 C 424.95999999999987 487.16 426.04999999999984 487.41 426.59999999999985 487.55 C 426.46999999999986 488.07 426.1899999999998 489.09000000000003 426.05999999999983 489.6 C 424.48999999999984 489.6 423.2099999999998 490.17 422.21999999999986 491.33000000000004 L 420.45999999999987 490.88000000000005 L 421.22999999999985 493.2900000000001 C 442.55999999999983 485.0100000000001 461.86999999999983 471.31000000000006 476.1299999999998 453.3500000000001 C 492.8399999999998 433.69000000000005 502.04999999999984 408.5400000000001 505.1899999999998 383.1300000000001 C 508.5199999999998 357.8000000000001 505.0799999999998 331.3100000000001 493.5099999999998 308.42000000000013 L 493.5099999999998 308.42000000000013 Z M 420.31 474.77 C 418.44 475.33 417.8 474.65999999999997 418.38 472.77 C 420.23 472.19 420.87 472.85999999999996 420.31 474.77 Z M 430.14 478.21 C 429.9 480.16999999999996 426.71 479.40999999999997 427.43 477.59999999999997 C 428.63 476.2 428.78000000000003 474.46 429.04 472.73999999999995 C 430.88 472.78999999999996 430.19 476.71999999999997 430.14000000000004 478.21 Z" stroke-linecap="round" />
</g>
		<g transform="matrix(1 0 0 1 -190.98 -117.94)"  >
<path style="stroke: none; stroke-width: 0; stroke-dasharray: none; stroke-linecap: butt; stroke-dashoffset: 0; stroke-linejoin: miter; stroke-miterlimit: 4; fill: rgb(0,0,0); fill-rule: nonzero; opacity: 1;" vector-effect="non-scaling-stroke"  transform=" translate(-239.31, -369.66)" d="M 240.58 369.76 C 240.14000000000001 369.96999999999997 239.67000000000002 370.13 239.16000000000003 370.26 C 239.20000000000002 369.56 239.28000000000003 368.15999999999997 239.33 367.45 L 238.03 367.65999999999997 C 238.1 368.71 238.22 370.78 238.28 371.86999999999995 C 239.17 371.24999999999994 239.93 370.53 240.57 369.74999999999994 Z" stroke-linecap="round" />
</g>
		<g transform="matrix(1 0 0 1 -0.02 177.06)"  >
<path style="stroke: none; stroke-width: 0; stroke-dasharray: none; stroke-linecap: butt; stroke-dashoffset: 0; stroke-linejoin: miter; stroke-miterlimit: 4; fill: rgb(0,0,0); fill-rule: nonzero; opacity: 1;" vector-effect="non-scaling-stroke"  transform=" translate(-430.26, -664.66)" d="M 755.14 432.31 C 754.88 426.14 756.41 418.22 750.48 414.14 C 740.26 406.77 728.62 401.75 717.83 395.32 C 703.62 387.21999999999997 688.98 379.94 674.46 372.44 C 669.75 370.36 665.2800000000001 367.8 660.7800000000001 365.29 C 658.9700000000001 366.93 657.5400000000001 368.86 656.3600000000001 370.97 C 656.4500000000002 371.19000000000005 656.5300000000001 371.39000000000004 656.5800000000002 371.55 C 656.3600000000001 371.62 656.1300000000001 371.7 655.9200000000002 371.77000000000004 C 653.2500000000002 376.8 651.5800000000002 382.57000000000005 648.3900000000002 387.15000000000003 C 669.3900000000002 399.18 690.7400000000002 410.6 711.9600000000003 422.23 C 708.3600000000002 426.5 702.7200000000003 428.12 698.0500000000003 430.90000000000003 C 633.0100000000003 466.27000000000004 568.1000000000004 501.88000000000005 503.47000000000025 537.98 C 479.61000000000024 550.84 455.98000000000025 564.13 432.04000000000025 576.82 C 420.71000000000026 570.23 408.9500000000003 564.4300000000001 397.54000000000025 558 C 370.66000000000025 542.9 343.2000000000003 528.87 316.2500000000002 513.93 C 271.09000000000026 489.23999999999995 225.9600000000002 464.44999999999993 180.54000000000022 440.21999999999997 C 170.4000000000002 434.03999999999996 159.06000000000023 429.84999999999997 149.68000000000023 422.45 C 171.59000000000023 410.97999999999996 193.07000000000022 398.7 214.40000000000023 386.18 L 214.40000000000023 386.18 C 214.72000000000023 385.98 215.05000000000024 385.8 215.38000000000022 385.6 L 237.55000000000024 372.33000000000004 C 237.77000000000024 372.20000000000005 238.00000000000023 372.05000000000007 238.21000000000024 371.91 C 235.72000000000023 371.91 233.25000000000023 371.91 230.77000000000024 372.02000000000004 C 230.04000000000025 374.52000000000004 228.48000000000025 372.56000000000006 227.26000000000025 372.18000000000006 C 225.14000000000024 370.95000000000005 222.15000000000023 372.9700000000001 220.58000000000024 370.5400000000001 C 221.73000000000025 370.75000000000006 224.01000000000025 371.1500000000001 225.15000000000023 371.36000000000007 C 225.15000000000023 370.43000000000006 225.14000000000024 368.57000000000005 225.12000000000023 367.64000000000004 C 223.88000000000022 367.84000000000003 221.38000000000022 368.22 220.12000000000023 368.41 L 219.47000000000023 366.53000000000003 L 222.29000000000022 367.47 C 222.38000000000022 367.11 222.44000000000023 366.77000000000004 222.4600000000002 366.44000000000005 C 223.9600000000002 366.7300000000001 225.4600000000002 367.01000000000005 226.9600000000002 367.27000000000004 C 227.3800000000002 367.23 228.2200000000002 367.15000000000003 228.6400000000002 367.11 C 226.51000000000022 364.49 225.00000000000023 360.6 221.00000000000023 360.52000000000004 L 223.33000000000024 360.08000000000004 L 228.25000000000023 362.61 C 227.35000000000022 361.56 225.52000000000024 359.47 224.61000000000024 358.42 L 225.35000000000025 356.95 C 224.32000000000025 357.21 222.25000000000026 357.74 221.22000000000025 358.01 C 221.78000000000026 357.03 222.86000000000024 355.09 223.40000000000026 354.11 C 221.76000000000028 354.49 220.18000000000026 355.04 218.65000000000026 355.68 C 216.27000000000027 356.65000000000003 213.98000000000027 357.85 211.70000000000027 359.04 L 211.74000000000026 359.23 L 211.86000000000027 359.84000000000003 C 211.32000000000028 359.96000000000004 210.31000000000026 360.17 209.61000000000027 360.32000000000005 C 209.45000000000027 360.35 209.32000000000028 360.37000000000006 209.20000000000027 360.40000000000003 C 205.79000000000028 362.19000000000005 202.37000000000026 363.99 198.96000000000026 365.79 L 198.85000000000025 365.84000000000003 C 178.13000000000025 376.76000000000005 157.44000000000025 387.78000000000003 136.97000000000025 399.16 C 127.64000000000026 404.28000000000003 117.86000000000026 408.79 109.38000000000025 415.3 C 105.41000000000025 418.41 105.99000000000025 423.8 106.01000000000025 428.27000000000004 C 105.80000000000025 453.39000000000004 105.86000000000024 478.50000000000006 105.97000000000024 503.62 C 106.00000000000024 515.13 106.05000000000024 526.65 106.08000000000024 538.16 C 106.27000000000024 542.5899999999999 105.88000000000024 547.0899999999999 106.83000000000024 551.4599999999999 C 105.33000000000024 556.6899999999999 107.90000000000023 562.0199999999999 106.54000000000023 567.29 C 105.07000000000023 572.12 107.93000000000023 576.8399999999999 106.70000000000023 581.67 C 106.87000000000023 583.76 107.10000000000024 585.86 107.37000000000023 587.9599999999999 C 107.03000000000023 587.9699999999999 106.46000000000024 587.9699999999999 105.95000000000023 587.9899999999999 C 105.69000000000023 587.9899999999999 105.45000000000023 587.9999999999999 105.26000000000023 587.9999999999999 C 105.52000000000024 588.0899999999999 105.75000000000023 588.1999999999999 105.95000000000023 588.3299999999999 C 108.00000000000023 589.53 107.07000000000023 591.9599999999999 106.19000000000023 593.9 C 106.53000000000023 593.9399999999999 107.22000000000023 594.01 107.57000000000022 594.05 L 106.34000000000022 597.5699999999999 C 108.26000000000022 596.55 109.71000000000022 595.02 110.69000000000021 592.9599999999999 L 108.12000000000022 593.3599999999999 C 108.20000000000022 592.55 108.34000000000022 590.9399999999999 108.42000000000021 590.1299999999999 C 109.08000000000021 590.2799999999999 110.42000000000021 590.5899999999999 111.08000000000021 590.7399999999999 L 111.19000000000021 589.5499999999998 C 111.89000000000021 588.8399999999998 113.27000000000021 587.4299999999998 113.9600000000002 586.7199999999998 C 113.8700000000002 587.9399999999998 113.77000000000021 589.4999999999998 113.7100000000002 590.3899999999998 C 115.22000000000021 590.3399999999998 118.2100000000002 590.2299999999998 119.72000000000021 590.1799999999997 C 117.84000000000022 588.1999999999997 115.84000000000022 586.2999999999997 113.66000000000021 584.6599999999997 C 115.27000000000021 584.7299999999998 118.50000000000021 584.8499999999998 120.1200000000002 584.8999999999997 C 118.3600000000002 586.8599999999998 118.6200000000002 588.6599999999997 120.8700000000002 590.2999999999997 C 117.8300000000002 593.1099999999997 113.4500000000002 591.6399999999998 109.8200000000002 591.1499999999997 C 110.30000000000021 592.0499999999997 111.2600000000002 593.8199999999997 111.75000000000021 594.7199999999998 C 112.64000000000021 594.5499999999998 114.44000000000021 594.1999999999998 115.34000000000022 594.0299999999997 L 115.17000000000021 595.3899999999998 C 115.78000000000021 595.9899999999998 116.98000000000022 597.1799999999997 117.59000000000022 597.7699999999998 C 117.11000000000021 598.2999999999997 116.17000000000021 599.3399999999998 115.70000000000022 599.8599999999998 C 114.39000000000021 599.6599999999997 113.07000000000022 599.4799999999998 111.76000000000022 599.3199999999998 C 112.26000000000022 602.0599999999998 114.30000000000022 603.8299999999998 116.10000000000022 605.8599999999998 L 114.56000000000022 601.0199999999998 C 116.84000000000022 600.9399999999997 119.09000000000022 600.8899999999998 121.38000000000022 600.9799999999998 L 120.14000000000023 598.8199999999998 C 119.53000000000023 598.6099999999998 118.29000000000023 598.1999999999998 117.67000000000023 597.9999999999998 L 117.96000000000024 595.7099999999998 C 118.97000000000024 595.6399999999998 120.95000000000023 595.5199999999998 121.96000000000024 595.4599999999998 C 121.89000000000024 597.4599999999998 121.83000000000024 599.4799999999998 121.84000000000023 601.4899999999998 C 121.10000000000024 601.7899999999997 119.60000000000024 602.3999999999997 118.86000000000023 602.7099999999998 C 118.95000000000023 604.0599999999998 119.07000000000022 604.8499999999998 119.31000000000023 606.0799999999998 C 119.36000000000023 606.0799999999998 119.61000000000023 606.1099999999998 119.61000000000023 606.1099999999998 C 119.68000000000022 606.1099999999998 119.54000000000023 606.8399999999998 119.61000000000023 606.8399999999998 C 119.61000000000023 606.8099999999998 119.94000000000023 605.4799999999998 119.81000000000023 606.2199999999998 C 120.11000000000023 604.8699999999998 120.39000000000023 603.7999999999998 120.64000000000023 602.6999999999998 C 121.51000000000023 604.7099999999998 123.31000000000023 604.9599999999998 125.09000000000023 605.3099999999998 C 125.49000000000024 605.0599999999998 125.87000000000023 604.7799999999999 126.24000000000024 604.4899999999998 C 126.80000000000024 604.0399999999997 127.31000000000023 603.5399999999997 127.79000000000023 603.0099999999998 C 128.61000000000024 602.0699999999997 129.30000000000024 600.9999999999998 129.81000000000023 599.8199999999997 C 129.88000000000022 596.4199999999997 129.96000000000024 593.0199999999998 129.77000000000024 589.6199999999997 C 124.70000000000024 588.7299999999997 128.25000000000023 583.0799999999997 127.37000000000023 579.7199999999997 C 129.41000000000022 582.0399999999997 127.83000000000023 585.2999999999997 128.36000000000024 588.0199999999996 C 131.48000000000025 584.9799999999997 129.30000000000024 580.2899999999996 130.19000000000025 576.4899999999997 C 131.42000000000024 570.0699999999997 129.57000000000025 563.6399999999996 130.53000000000026 557.2499999999997 C 129.72000000000025 557.6599999999996 128.10000000000025 558.5099999999996 127.29000000000026 558.9299999999996 C 126.89000000000026 560.2499999999997 126.44000000000027 561.5599999999996 125.95000000000026 562.8599999999996 L 126.41000000000025 558.1799999999996 L 121.83000000000025 562.2199999999996 C 123.50000000000026 558.8899999999995 126.95000000000026 557.1099999999996 130.59000000000026 556.9799999999996 C 130.74000000000026 541.3399999999996 130.81000000000026 525.7099999999996 130.85000000000025 510.0699999999996 C 130.92000000000024 488.1699999999996 130.93000000000026 466.2699999999996 131.02000000000024 444.3799999999996 C 145.63000000000022 452.3999999999996 160.05000000000024 460.7199999999996 174.80000000000024 468.4999999999996 C 209.55000000000024 486.3999999999996 243.49000000000024 505.8399999999996 278.0200000000002 524.1699999999996 C 300.6500000000002 536.2499999999997 323.1500000000002 548.5599999999996 345.6400000000002 560.8799999999997 C 369.7900000000002 574.7199999999997 394.74000000000024 587.1499999999996 418.5200000000002 601.6499999999996 C 418.5700000000002 714.0499999999996 418.43000000000023 826.4699999999996 418.5900000000002 938.8699999999997 C 412.5800000000002 934.8099999999997 405.9900000000002 931.7199999999997 399.7200000000002 928.1199999999997 C 356.0200000000002 904.4199999999996 312.8400000000002 879.7899999999996 269.1700000000002 856.0499999999997 C 241.87000000000018 841.1599999999997 214.7300000000002 825.9599999999997 187.2000000000002 811.4899999999998 C 187.0400000000002 812.3199999999998 186.7500000000002 813.9999999999998 186.6000000000002 814.8499999999998 C 186.7100000000002 813.6099999999998 186.8200000000002 812.3599999999998 186.9600000000002 811.1299999999998 C 172.7200000000002 803.9299999999997 158.76000000000022 796.1599999999997 144.4700000000002 789.0299999999997 C 141.7800000000002 792.7899999999997 138.8700000000002 796.3999999999997 135.9900000000002 800.0399999999997 C 135.5000000000002 800.8199999999997 135.0000000000002 801.5799999999997 134.51000000000022 802.3299999999997 C 133.01000000000022 804.8699999999997 131.53000000000023 807.4399999999997 130.0200000000002 810.0099999999996 C 137.1500000000002 812.9699999999997 143.6500000000002 817.4099999999996 150.54000000000022 820.9399999999996 C 176.54000000000022 835.5499999999996 202.3900000000002 850.4199999999996 228.56000000000023 864.7199999999996 C 263.8900000000002 885.1899999999996 299.98000000000025 904.3299999999996 335.5800000000002 924.3199999999996 C 363.7300000000002 940.4999999999995 392.6000000000002 955.3899999999996 420.3900000000002 972.1799999999996 C 426.2000000000002 975.6299999999997 433.6400000000002 976.1899999999996 439.86000000000024 973.5199999999996 C 474.58000000000027 952.1899999999996 511.0000000000002 933.7099999999996 545.9400000000003 912.7099999999996 C 607.5100000000003 878.6299999999995 669.2300000000002 844.8199999999996 730.3600000000002 809.9499999999996 C 727.4400000000003 801.8399999999996 721.4100000000002 794.8499999999996 714.1500000000002 790.2099999999996 C 710.3900000000002 792.0499999999996 706.6600000000002 793.9599999999996 702.9300000000002 795.8499999999996 C 648.5500000000002 824.9899999999996 594.5200000000002 854.7799999999995 540.7200000000001 884.9899999999996 C 527.8200000000002 892.5299999999995 514.2900000000002 898.9799999999996 501.51000000000016 906.7499999999995 C 483.14000000000016 917.6799999999995 464.07000000000016 927.4099999999995 445.98000000000013 938.8099999999995 C 445.33000000000015 826.1199999999994 445.8100000000001 713.4199999999995 445.72000000000014 600.7299999999996 C 488.9300000000001 576.2499999999995 532.7400000000001 552.8799999999995 576.0800000000002 528.6199999999995 C 598.2900000000002 515.8799999999995 621.0500000000002 504.1499999999995 643.2500000000001 491.3999999999995 C 664.4100000000001 479.8499999999995 685.6400000000001 468.38999999999953 706.9700000000001 457.13999999999953 C 714.9800000000001 453.00999999999954 722.4500000000002 447.93999999999954 730.6000000000001 444.10999999999956 C 730.6800000000002 473.23999999999955 730.7300000000001 502.37999999999954 730.9800000000001 531.4999999999995 C 731.0500000000002 536.8099999999995 731.8900000000001 542.1399999999995 731.5100000000001 547.4499999999996 C 732.2200000000001 547.5799999999996 732.8500000000001 547.8499999999996 733.3900000000001 548.1899999999996 C 733.3400000000001 547.8599999999996 733.2700000000001 547.5399999999996 733.1700000000001 547.1999999999996 C 733.5100000000001 547.6399999999996 733.8100000000001 548.1499999999996 734.08 548.6999999999996 C 735.1 549.6099999999996 735.73 550.8699999999995 735.95 552.2199999999996 C 736.84 553.4399999999996 738.01 554.1699999999996 739.96 553.5699999999996 C 738.46 554.3099999999996 736.98 555.0799999999996 735.51 555.8299999999996 C 734.84 557.4599999999996 733.49 558.7499999999995 731.45 559.1299999999995 C 731.5300000000001 565.0799999999996 731.6400000000001 571.0499999999995 731.4200000000001 577.0199999999995 C 731.6600000000001 577.3399999999996 732.09 577.9599999999996 732.3600000000001 578.3299999999995 L 732.4500000000002 578.3299999999995 C 732.7000000000002 577.2599999999994 733.1600000000002 575.2299999999994 733.3900000000002 574.2099999999995 L 736.6500000000002 574.8999999999995 C 735.8600000000002 575.6399999999995 734.2700000000002 577.1199999999995 733.4900000000002 577.8599999999996 C 733.7900000000002 578.0099999999995 734.2400000000002 578.1999999999996 734.6900000000003 578.4199999999995 C 735.3900000000003 578.4599999999995 736.0900000000003 578.5099999999995 736.7900000000003 578.5699999999995 C 737.2300000000004 577.3499999999995 737.8400000000003 575.6299999999994 738.1700000000003 574.6899999999995 C 738.1700000000003 575.6599999999995 738.1400000000003 577.3099999999995 738.1300000000003 578.6899999999995 C 738.5500000000003 578.7299999999994 738.9900000000004 578.7699999999995 739.4100000000003 578.8099999999995 C 740.1600000000003 577.9599999999995 740.9100000000003 577.0999999999995 741.6900000000003 576.2699999999995 C 740.9200000000003 575.9799999999996 739.3900000000003 575.4099999999995 738.6200000000002 575.1299999999995 L 738.6700000000002 573.0099999999995 C 739.6200000000002 573.4999999999995 741.5300000000002 574.4499999999996 742.4800000000001 574.9399999999995 C 742.4300000000002 576.3199999999995 742.3900000000001 577.7099999999995 742.3600000000001 579.0999999999995 C 743.6300000000001 579.2199999999995 744.9000000000001 579.3399999999995 746.1800000000002 579.4199999999995 C 746.2600000000002 579.0099999999995 746.3300000000002 578.5999999999995 746.3800000000002 578.3199999999995 C 746.9500000000003 578.2099999999995 748.1000000000003 577.9799999999994 748.6700000000002 577.8599999999994 L 749.6800000000002 577.4499999999995 C 750.0400000000002 577.5699999999995 750.3200000000002 577.7499999999994 750.5700000000002 577.9899999999994 C 750.6500000000002 577.9099999999994 750.7000000000002 577.8299999999995 750.7800000000002 577.7499999999994 C 751.8300000000002 576.7199999999995 753.1900000000002 576.1799999999994 754.5900000000001 576.0799999999995 C 754.6600000000002 565.1999999999995 754.7400000000001 554.3199999999995 755.1900000000002 543.4599999999995 C 755.4000000000002 506.41999999999945 755.1100000000001 469.3799999999995 755.1200000000001 432.33999999999946 L 755.1100000000001 432.33999999999946 Z M 225.34000000000003 363.55 C 224.63000000000002 364.25 223.21000000000004 365.68 222.48000000000002 366.41 C 222.67000000000002 364.64000000000004 222.12 363.06 220.85000000000002 361.71000000000004 C 221.97000000000003 362.17 224.21000000000004 363.09000000000003 225.34000000000003 363.55 L 225.34000000000003 363.55 Z M 114.06000000000003 585.6700000000001 C 114.05000000000003 585.95 114.02000000000002 586.3100000000001 113.99000000000004 586.69 C 112.92000000000004 586.61 110.76000000000003 586.45 109.69000000000004 586.37 C 110.95000000000005 585.03 112.40000000000003 584.8 114.06000000000004 585.67 Z" stroke-linecap="round" />
</g>
		<g transform="matrix(1 0 0 1 -195.21 -123.89)"  >
<path style="stroke: none; stroke-width: 0; stroke-dasharray: none; stroke-linecap: butt; stroke-dashoffset: 0; stroke-linejoin: miter; stroke-miterlimit: 4; fill: rgb(0,0,0); fill-rule: nonzero; opacity: 1;" vector-effect="non-scaling-stroke"  transform=" translate(-235.07, -363.71)" d="M 236.82 365.04 C 235.10999999999999 367.55 230.57 360.73 234.87 361.97 C 236.44 362.17 237.58 363.44000000000005 236.82 365.04 Z" stroke-linecap="round" />
</g>
		<g transform="matrix(1 0 0 1 -197.3 -120.58)"  >
<path style="stroke: none; stroke-width: 0; stroke-dasharray: none; stroke-linecap: butt; stroke-dashoffset: 0; stroke-linejoin: miter; stroke-miterlimit: 4; fill: rgb(0,0,0); fill-rule: nonzero; opacity: 1;" vector-effect="non-scaling-stroke"  transform=" translate(-232.98, -367.02)" d="M 232.8 363.96 C 233.49 365.27 234.18 366.62 234.82000000000002 367.96999999999997 C 235.48000000000002 368.01 236.8 368.09 237.48000000000002 368.13 L 236.50000000000003 369.85 C 235.96000000000004 369.66 234.87000000000003 369.28000000000003 234.34000000000003 369.1 C 232.37000000000003 369.35 230.33000000000004 369.3 228.48000000000002 370.08000000000004 L 229.12 366.65000000000003 C 230.1 366.78000000000003 232.04 367.07000000000005 233.02 367.22 C 232.97 366.40000000000003 232.85000000000002 364.77000000000004 232.8 363.96000000000004 L 232.8 363.96000000000004 Z" stroke-linecap="round" />
</g>
		<g transform="matrix(1 0 0 1 -203.23 -118)"  >
<path style="stroke: none; stroke-width: 0; stroke-dasharray: none; stroke-linecap: butt; stroke-dashoffset: 0; stroke-linejoin: miter; stroke-miterlimit: 4; fill: rgb(0,0,0); fill-rule: nonzero; opacity: 1;" vector-effect="non-scaling-stroke"  transform=" translate(-227.05, -369.6)" d="M 226.19 368.7 C 228.92 367.43 228.28 372.59999999999997 226.10999999999999 369.92 L 226.19 368.7 Z" stroke-linecap="round" />
</g>
		<g transform="matrix(1 0 0 1 -81.77 -50.82)"  >
<path style="stroke: none; stroke-width: 0; stroke-dasharray: none; stroke-linecap: butt; stroke-dashoffset: 0; stroke-linejoin: miter; stroke-miterlimit: 4; fill: rgb(0,0,0); fill-rule: nonzero; opacity: 1;" vector-effect="non-scaling-stroke"  transform=" translate(-348.51, -436.78)" d="M 345.78 439.43 C 346.05999999999995 437.64 349.76 432.31 351.25 434.75 C 350.8 435.44 349.89 436.79 349.42 437.48 C 348.27000000000004 438.41 347.05 439.05 345.78000000000003 439.44 Z" stroke-linecap="round" />
</g>
		<g transform="matrix(1 0 0 1 -78.74 -44.35)"  >
<path style="stroke: none; stroke-width: 0; stroke-dasharray: none; stroke-linecap: butt; stroke-dashoffset: 0; stroke-linejoin: miter; stroke-miterlimit: 4; fill: rgb(0,0,0); fill-rule: nonzero; opacity: 1;" vector-effect="non-scaling-stroke"  transform=" translate(-351.54, -443.25)" d="M 349.46 443.5 C 348.29999999999995 441.2 350.91999999999996 441.1 352.22999999999996 442.03 C 354.08 441.28 354.40999999999997 443.28999999999996 353.21 444.30999999999995 C 351.69 445.46999999999997 350.44 445.2099999999999 349.46999999999997 443.49999999999994 L 349.46999999999997 443.49999999999994 Z" stroke-linecap="round" />
</g>
		<g transform="matrix(1 0 0 1 -83.64 -36.75)"  >
<path style="stroke: none; stroke-width: 0; stroke-dasharray: none; stroke-linecap: butt; stroke-dashoffset: 0; stroke-linejoin: miter; stroke-miterlimit: 4; fill: rgb(0,0,0); fill-rule: nonzero; opacity: 1;" vector-effect="non-scaling-stroke"  transform=" translate(-346.64, -450.85)" d="M 342.42 448.45 C 343.23 448.53 344.85 448.71 345.66 448.81 C 346.90000000000003 450.81 349.06 449.83 350.93 449.64 C 350.74 450.83 350.63 452.03999999999996 350.57 453.25 C 349.96999999999997 453.05 348.8 452.63 348.2 452.43 L 348.56 450.72 L 346.31 451.98 L 346.31 450.14000000000004 C 344.97 450.23 341.85 450.72 342.42 448.45000000000005 Z" stroke-linecap="round" />
</g>
		<g transform="matrix(1 0 0 1 -13.61 -8.64)"  >
<path style="stroke: none; stroke-width: 0; stroke-dasharray: none; stroke-linecap: butt; stroke-dashoffset: 0; stroke-linejoin: miter; stroke-miterlimit: 4; fill: rgb(0,0,0); fill-rule: nonzero; opacity: 1;" vector-effect="non-scaling-stroke"  transform=" translate(-416.67, -478.95)" d="M 417.07 477.63 C 420.37 478.04 414.87 482.3 415.21999999999997 479.09 C 415.67999999999995 478.71999999999997 416.60999999999996 478 417.07 477.63 Z" stroke-linecap="round" />
</g>
		<g transform="matrix(1 0 0 1 -8.86 -7.76)"  >
<path style="stroke: none; stroke-width: 0; stroke-dasharray: none; stroke-linecap: butt; stroke-dashoffset: 0; stroke-linejoin: miter; stroke-miterlimit: 4; fill: rgb(0,0,0); fill-rule: nonzero; opacity: 1;" vector-effect="non-scaling-stroke"  transform=" translate(-421.42, -479.83)" d="M 419.15 480 C 419.97999999999996 478.8 423.01 477.98 423.69 479.64 C 422.9 481 419.85 481.61 419.15 480 Z" stroke-linecap="round" />
</g>
		<g transform="matrix(1 0 0 1 -10.75 -3.4)"  >
<path style="stroke: none; stroke-width: 0; stroke-dasharray: none; stroke-linecap: butt; stroke-dashoffset: 0; stroke-linejoin: miter; stroke-miterlimit: 4; fill: rgb(0,0,0); fill-rule: nonzero; opacity: 1;" vector-effect="non-scaling-stroke"  transform=" translate(-419.53, -484.19)" d="M 415.34 481.31 C 416.77 481.84 418.15 482.53000000000003 419.44 483.37 L 423.74 481.6 L 419.77 485.41 C 420.71999999999997 485.79 422.62 486.55 423.57 486.93 C 421.21 487.55 419.08 486.06 416.86 485.65000000000003 L 418.88 484.67 C 417.64 483.6 416.46 482.47 415.33 481.31 Z" stroke-linecap="round" />
</g>
		<g transform="matrix(1 0 0 1 -319.04 109.26)"  >
<path style="stroke: none; stroke-width: 0; stroke-dasharray: none; stroke-linecap: butt; stroke-dashoffset: 0; stroke-linejoin: miter; stroke-miterlimit: 4; fill: rgb(0,0,0); fill-rule: nonzero; opacity: 1;" vector-effect="non-scaling-stroke"  transform=" translate(-111.24, -596.86)" d="M 110.75 595.47 C 112.51 594.86 113.98 597.96 111.74 598.25 C 109.91 598.85 108.55 595.83 110.75 595.47 Z" stroke-linecap="round" />
</g>
		<g transform="matrix(1 0 0 1 -209.45 -119.13)"  >
<path style="stroke: none; stroke-width: 0; stroke-dasharray: none; stroke-linecap: butt; stroke-dashoffset: 0; stroke-linejoin: miter; stroke-miterlimit: 4; fill: rgb(0,0,0); fill-rule: nonzero; opacity: 1;" vector-effect="non-scaling-stroke"  transform=" translate(-220.84, -368.46)" d="M 243.04 362.37 C 243.04 365.06 242.13 367.73 240.34 369.87 C 239.70000000000002 370.65 238.94 371.37 238.05 371.99 C 238.02 372 238.01000000000002 372.02 237.98000000000002 372.03000000000003 C 237.77 372.18 237.54000000000002 372.32000000000005 237.32000000000002 372.45000000000005 L 215.15000000000003 385.72 L 214.17000000000004 386.3 L 214.17000000000004 386.3 L 198.63000000000005 365.93 L 198.74000000000007 365.88 L 209.39000000000007 360.40999999999997 L 211.52000000000007 359.32 L 218.43000000000006 355.77 L 225.93000000000006 351.91999999999996 C 230.06000000000006 349.79999999999995 235.06000000000006 350.31999999999994 238.67000000000007 353.23999999999995 C 241.59000000000006 355.60999999999996 243.02000000000007 358.97999999999996 243.02000000000007 362.34 Z" stroke-linecap="round" />
</g>
		<g transform="matrix(1 0 0 1 -311.85 67.82)"  >
<path style="stroke: none; stroke-width: 0; stroke-dasharray: none; stroke-linecap: butt; stroke-dashoffset: 0; stroke-linejoin: miter; stroke-miterlimit: 4; fill: rgb(0,0,0); fill-rule: nonzero; opacity: 1;" vector-effect="non-scaling-stroke"  transform=" translate(-118.43, -555.42)" d="M 130.89 503.61 L 130.89 594.77 C 130.89 596.56 130.51999999999998 598.26 129.82999999999998 599.8 C 129.30999999999997 600.9799999999999 128.63 602.05 127.80999999999999 602.99 C 127.32999999999998 603.52 126.82 604.02 126.25999999999999 604.47 C 125.88999999999999 604.76 125.50999999999999 605.0400000000001 125.10999999999999 605.2900000000001 C 123.50999999999999 606.3100000000001 121.63999999999999 606.97 119.63999999999999 607.1600000000001 C 119.55999999999999 607.1700000000001 119.47999999999999 607.19 119.39999999999999 607.19 C 119.08 607.22 118.75999999999999 607.23 118.42999999999999 607.23 C 111.55 607.23 105.97999999999999 601.66 105.97999999999999 594.78 L 105.97999999999999 503.62 L 130.88 503.62 Z" stroke-linecap="round" />
</g>
		<g transform="matrix(1 0 0 1 312.86 67.12)"  >
<path style="stroke: none; stroke-width: 0; stroke-dasharray: none; stroke-linecap: butt; stroke-dashoffset: 0; stroke-linejoin: miter; stroke-miterlimit: 4; fill: rgb(0,0,0); fill-rule: nonzero; opacity: 1;" vector-effect="non-scaling-stroke"  transform=" translate(-743.14, -554.72)" d="M 755.28 502.91 L 755.28 594.07 C 755.28 595.86 754.92 597.5600000000001 754.25 599.1 C 753.75 600.28 753.07 601.35 752.28 602.2900000000001 C 751.8199999999999 602.82 751.31 603.32 750.77 603.7700000000001 C 750.41 604.0600000000001 750.03 604.3400000000001 749.65 604.5900000000001 C 748.09 605.6100000000001 746.26 606.2700000000001 744.3199999999999 606.4600000000002 C 744.2399999999999 606.4700000000001 744.16 606.4900000000001 744.0799999999999 606.4900000000001 C 743.78 606.5200000000001 743.4599999999999 606.5300000000001 743.1399999999999 606.5300000000001 C 736.4199999999998 606.5300000000001 730.9799999999999 600.96 730.9799999999999 594.08 L 730.9799999999999 502.9200000000001 L 755.3 502.9200000000001 L 755.29 502.9200000000001 Z" stroke-linecap="round" />
</g>
		<g transform="matrix(1 0 0 1 233.82 -105.06)"  >
<path style="stroke: none; stroke-width: 0; stroke-dasharray: none; stroke-linecap: butt; stroke-dashoffset: 0; stroke-linejoin: miter; stroke-miterlimit: 4; fill: rgb(0,0,0); fill-rule: nonzero; opacity: 1;" vector-effect="non-scaling-stroke"  transform=" translate(-664.1, -382.54)" d="M 657.61 363.71 L 689 379.89 L 676.36 402.78 L 645.75 385.96 C 639.49 382.52 637.33 374.57 641 368.44 L 641 368.44 C 644.41 362.71999999999997 651.69 360.65 657.61 363.7 L 657.61 363.7 Z" stroke-linecap="round" />
</g>
		<g transform="matrix(1 0 0 1 290.66 313.61)"  >
<path style="stroke: none; stroke-width: 0; stroke-dasharray: none; stroke-linecap: butt; stroke-dashoffset: 0; stroke-linejoin: miter; stroke-miterlimit: 4; fill: rgb(0,0,0); fill-rule: nonzero; opacity: 1;" vector-effect="non-scaling-stroke"  transform=" translate(-720.94, -801.2)" d="M 734.47 807.61 L 716.23 817.8000000000001 L 701.2 796.7500000000001 L 722.58 785.9500000000002 C 727.8100000000001 783.3200000000002 734.1700000000001 784.6400000000002 737.88 789.1500000000002 L 737.88 789.1500000000002 C 742.72 795.0400000000002 741.1 803.8100000000002 734.45 807.6100000000002 L 734.46 807.6100000000002 Z" stroke-linecap="round" />
</g>
		<g transform="matrix(1 0 0 1 -288.26 314.54)"  >
<path style="stroke: none; stroke-width: 0; stroke-dasharray: none; stroke-linecap: butt; stroke-dashoffset: 0; stroke-linejoin: miter; stroke-miterlimit: 4; fill: rgb(0,0,0); fill-rule: nonzero; opacity: 1;" vector-effect="non-scaling-stroke"  transform=" translate(-142.02, -802.14)" d="M 127.52 808.59 L 147.07 818.86 L 163.19 798.67 L 140.26 786.77 C 134.66 784.11 127.82 785.46 123.85 790 L 123.85 790 C 118.66 795.93 120.41 804.78 127.53 808.61 L 127.53 808.61 Z" stroke-linecap="round" />
</g>
		<g transform="matrix(1 0 0 1 110.82 -91.78)"  >
<polygon style="stroke: none; stroke-width: 0; stroke-dasharray: none; stroke-linecap: butt; stroke-dashoffset: 0; stroke-linejoin: miter; stroke-miterlimit: 4; fill: rgb(0,0,0); fill-rule: nonzero; opacity: 1;" vector-effect="non-scaling-stroke"  points="-6.81,11.6 -6.37,10.99 0.13,2.7 1,-0.47 -0.71,-5.61 -0.23,-7.09 2.2,-14.46 1.27,-15.81 1.45,-18.91 6.8,-12.99 5.39,12.6 -0.34,18.91 -6.81,11.6 " />
</g>
		<g transform="matrix(1 0 0 1 176.17 -244.3)"  >
<polygon style="stroke: none; stroke-width: 0; stroke-dasharray: none; stroke-linecap: butt; stroke-dashoffset: 0; stroke-linejoin: miter; stroke-miterlimit: 4; fill: rgb(0,0,0); fill-rule: nonzero; opacity: 1;" vector-effect="non-scaling-stroke"  points="0.98,-1.28 1.73,0.98 -0.12,1.8 -1.73,-1.8 0.98,-1.28 " />
</g>
		<g transform="matrix(1 0 0 1 -185.78 206.94)"  >
<path style="stroke: none; stroke-width: 0; stroke-dasharray: none; stroke-linecap: butt; stroke-dashoffset: 0; stroke-linejoin: miter; stroke-miterlimit: 4; fill: rgb(0,0,0); fill-rule: nonzero; opacity: 1;" vector-effect="non-scaling-stroke"  transform=" translate(-244.5, -694.54)" d="M 279.99 776.79 L 209.66000000000003 738.9599999999999 L 200.52000000000004 774.2399999999999 L 163.30000000000004 754.2799999999999 L 219.96000000000004 547.7599999999999 L 270.33000000000004 575.3099999999998 L 325.70000000000005 841.3199999999998 L 289.07000000000005 821.6799999999998 L 280.02000000000004 776.7799999999999 L 280.01000000000005 776.7799999999999 Z M 248.18 618.15 L 241.8 614.68 L 221.18 693.3 L 268.7 718.9699999999999 L 248.17999999999998 618.1599999999999 L 248.17999999999998 618.1599999999999 Z" stroke-linecap="round" />
</g>
		<g transform="matrix(1 0 0 1 -83.04 247.45)"  >
<path style="stroke: none; stroke-width: 0; stroke-dasharray: none; stroke-linecap: butt; stroke-dashoffset: 0; stroke-linejoin: miter; stroke-miterlimit: 4; fill: rgb(0,0,0); fill-rule: nonzero; opacity: 1;" vector-effect="non-scaling-stroke"  transform=" translate(-347.25, -735.05)" d="M 364.03 626.58 L 364.07 861.9100000000001 L 330.42 843.8700000000001 L 330.42 608.19 L 364.03000000000003 626.58 L 364.03000000000003 626.58 Z" stroke-linecap="round" />
</g>
		<g transform="matrix(1 0 0 1 116.47 235.72)"  >
<path style="stroke: none; stroke-width: 0; stroke-dasharray: none; stroke-linecap: butt; stroke-dashoffset: 0; stroke-linejoin: miter; stroke-miterlimit: 4; fill: rgb(0,0,0); fill-rule: nonzero; opacity: 1;" vector-effect="non-scaling-stroke"  transform=" translate(-546.75, -723.32)" d="M 500.43 624.28 L 553.52 596.04 C 567.38 588.67 569.68 587.8 573.59 587.11 C 588.77 585.32 593.02 601.57 593.0600000000001 662.38 C 593.09 713.08 590.23 734.94 581.3800000000001 750.29 C 576.2100000000002 759.0899999999999 570.9000000000001 763.4 553.8200000000002 772.79 L 524.1200000000001 789.0899999999999 L 524.1200000000001 846.5199999999999 L 500.4600000000001 859.6599999999999 L 500.4600000000001 624.2799999999999 L 500.4300000000001 624.2799999999999 Z M 553.55 714.27 C 564.18 708.14 564.64 707.89 566.5999999999999 703.67 C 568.8999999999999 698.56 569.7099999999999 691.4699999999999 569.6999999999999 674.99 C 569.6899999999999 658.5100000000001 568.77 652.36 565.89 650.42 C 564.28 649.1899999999999 564.04 649.31 553.53 654.61 L 524.0899999999999 670.45 L 524.0899999999999 730.2800000000001 L 553.56 714.2700000000001 L 553.56 714.2700000000001 Z" stroke-linecap="round" />
</g>
		<g transform="matrix(1 0 0 1 218.89 174)"  >
<path style="stroke: none; stroke-width: 0; stroke-dasharray: none; stroke-linecap: butt; stroke-dashoffset: 0; stroke-linejoin: miter; stroke-miterlimit: 4; fill: rgb(0,0,0); fill-rule: nonzero; opacity: 1;" vector-effect="non-scaling-stroke"  transform=" translate(-649.17, -661.59)" d="M 699.32 618.41 L 699.32 624.63 C 699.35 646.77 698.94 687.16 698.62 698.42 C 697.75 725.92 692.93 744.54 683.92 755.0699999999999 C 676.14 764.2499999999999 668.11 770.0899999999999 647.6999999999999 781.42 C 621.7399999999999 795.8299999999999 613.51 797.26 607.0899999999999 787.53 C 600.3299999999999 777.63 599.06 761.1999999999999 599.0199999999999 684.64 C 598.9899999999999 621.77 600.9299999999998 597.3299999999999 607.3199999999998 580.3 C 612.7999999999998 565.52 625.1199999999998 554.4399999999999 651.5999999999998 540.3599999999999 C 679.5199999999998 525.5099999999999 689.9999999999998 525.8199999999999 694.9799999999998 541.1699999999998 C 698.1399999999998 550.8999999999999 699.0599999999998 564.5899999999998 699.1999999999998 598.3999999999999 L 676.3299999999998 610.7499999999999 C 676.2099999999998 597.6399999999999 675.9699999999998 594.6499999999999 674.4999999999998 592.3199999999999 C 672.2399999999998 588.68 666.8099999999997 590.2199999999999 649.5999999999998 599.4699999999999 C 622.2999999999998 614.1499999999999 622.1799999999998 614.56 622.2199999999998 674.8499999999999 C 622.2499999999998 713.56 622.9299999999998 726.0799999999999 625.5699999999998 730.5699999999999 C 627.3999999999999 734.0999999999999 629.3399999999998 734.43 635.4799999999998 731.7499999999999 L 649.5699999999998 724.6999999999999 C 669.1699999999998 713.93 673.3499999999998 710.5799999999999 675.4899999999998 703.5099999999999 C 676.7299999999998 699.0099999999999 677.0599999999998 694.6599999999999 677.0499999999997 676.6299999999999 L 646.8299999999997 693.1399999999999 L 646.7899999999997 646.8899999999999 L 699.3099999999997 618.4299999999998 L 699.3199999999997 618.4299999999998 Z" stroke-linecap="round" />
</g>
</g>
</g>
</svg>