<?xml version="1.0" encoding="UTF-8"?>
<!DOCTYPE svg PUBLIC "-//W3C//DTD SVG 1.1//EN" "http://www.w3.org/Graphics/SVG/1.1/DTD/svg11.dtd">
<svg xmlns="http://www.w3.org/2000/svg" version="1.1" width="50px" height="70px" style="shape-rendering:geometricPrecision; text-rendering:geometricPrecision; image-rendering:optimizeQuality; fill-rule:evenodd; clip-rule:evenodd" xmlns:xlink="http://www.w3.org/1999/xlink">
<g><path style="opacity:0.886" fill="#000000" d="M 49.5,58.5 C 49.5,59.8333 49.5,61.1667 49.5,62.5C 46.8127,62.6641 44.146,62.4974 41.5,62C 39.9358,57.8104 38.2691,53.6437 36.5,49.5C 28.5,48.1667 20.5,48.1667 12.5,49.5C 10.7221,53.3904 9.22208,57.3904 8,61.5C 5.28086,62.4438 2.44753,62.7771 -0.5,62.5C -0.5,61.1667 -0.5,59.8333 -0.5,58.5C 6.33552,42.0127 13.0022,25.346 19.5,8.5C 22.8333,7.16667 26.1667,7.16667 29.5,8.5C 35.9978,25.346 42.6645,42.0127 49.5,58.5 Z M 23.5,17.5 C 27.9608,25.1811 31.2942,33.5144 33.5,42.5C 27.5,42.5 21.5,42.5 15.5,42.5C 18.1667,34.1667 20.8333,25.8333 23.5,17.5 Z"/></g>
</svg>
