<svg xmlns="http://www.w3.org/2000/svg" width="107" height="150" viewBox="0 0 107 150" version="1.1"><path d="" stroke="none" fill="#080404" fill-rule="evenodd"/><path d="M 39.853 69.228 C 27.009 91.353, 15.249 110.891, 13.719 112.645 C 11.833 114.808, 9.660 116.051, 6.969 116.505 C 4.034 117.001, 3 117.652, 3 119.006 C 3 120.013, 2.727 121.548, 2.393 122.418 C 1.853 123.825, 3.793 124, 19.893 124 C 37.076 124, 38 123.902, 38 122.082 C 38 121.027, 38.273 119.452, 38.607 118.582 C 38.976 117.619, 38.683 116.998, 37.857 116.994 C 37.111 116.991, 34.758 116.505, 32.629 115.914 C 28.883 114.874, 28.775 114.721, 29.278 111.170 C 29.564 109.151, 31.502 104.462, 33.585 100.750 L 37.372 94 53.506 94 L 69.640 94 70.856 103.132 C 72.312 114.074, 71.627 115.394, 63.956 116.411 C 61.107 116.789, 58.994 117.586, 58.986 118.284 C 58.979 118.953, 58.701 120.513, 58.370 121.750 L 57.767 124 80.383 124 C 102.012 124, 103 123.916, 103 122.082 C 103 121.027, 103.263 119.479, 103.584 118.643 C 104.017 117.514, 103.229 116.946, 100.527 116.439 C 98.421 116.044, 96.277 114.826, 95.441 113.551 C 94.566 112.215, 91.823 96.007, 88.480 72.423 C 85.446 51.015, 82.738 32.487, 82.463 31.250 C 81.987 29.112, 81.494 29, 72.584 29 L 63.206 29 39.853 69.228 M 61.099 50.750 C 59.835 53.362, 55.245 61.873, 50.900 69.663 C 46.555 77.453, 43 84.091, 43 84.413 C 43 84.736, 48.625 85, 55.500 85 C 64.823 85, 68.005 84.682, 68.020 83.750 C 68.081 79.930, 64.433 46, 63.961 46 C 63.652 46, 62.364 48.138, 61.099 50.750" stroke="none" fill="#040404" fill-rule="evenodd"/></svg>